<?xml version="1.0" encoding="UTF-8"?>
<svg width="195mm" height="251.43mm" version="1.1" viewBox="0 0 194.99965 251.43342" xmlns="http://www.w3.org/2000/svg">
<g transform="translate(-9.9791 -32.688)" fill="#f9fc38">
<g transform="translate(2.8613 -8.0116)" stroke-width=".35278">
<path d="m168.2 235.77c-0.29104-0.0692-2.0942-0.3947-4.007-0.72337-3.3381-0.57357-3.4962-0.64171-3.9352-1.6956-0.67762-1.6269-1.0144-4.3229-0.57405-4.5951 0.20393-0.12604 2.2608 0.0933 4.5709 0.48745 2.3101 0.39414 4.7136 0.71662 5.3412 0.71662 1.2985 0 2.8706-0.81823 3.4959-1.8196 0.23325-0.37349 2.0114-9.3641 3.9514-19.979 1.94-10.615 5.4199-29.619 7.733-42.231 2.3131-12.612 5.3221-29.042 6.6866-36.512s3.0376-16.598 3.7178-20.285c1.3495-7.314 1.4297-8.1969 0.85873-9.4501-0.61319-1.3458-2.0239-1.9263-6.5147-2.6805-2.3182-0.38936-7.9456-1.3444-12.505-2.1223-9.4392-1.6104-37.004-6.2958-57.285-9.7371-8.0966-1.3739-14.125-2.2378-14.714-2.1085-0.54838 0.12044-1.4599 0.74619-2.0257 1.3906-0.86304 0.98295-1.1524 1.8451-1.7973 5.3551-0.42275 2.3009-1.6077 8.7873-2.6332 14.414-1.646 9.0311-1.9436 10.242-2.539 10.329-0.91162 0.13295-4.3786-2.9333-4.3786-3.8724 0-1.3716 4.6399-26.187 5.0962-27.256 0.5982-1.4012 2.4662-3.7092 3.66-4.5222l0.94524-0.64368-1.5875 0.1854c-0.87312 0.10197-6.5881 0.36325-12.7 0.58062-6.1119 0.21737-11.668 0.53664-12.347 0.70948-0.8187 0.20838-1.5207 0.73669-2.0835 1.568l-0.8488 1.2537 0.42242 9.7756c0.23233 5.3766 0.5178 11.607 0.63438 13.845 0.25247 4.8475 0.03446 5.2788-2.6684 5.2788-3.0863 0-2.8824 0.8309-3.6001-14.672-0.44952-9.7102-0.53204-14.191-0.28201-15.314 0.46535-2.0902 2.2328-4.7997 3.8101-5.8407 2.841-1.875 2.447-1.8394 35.703-3.232 22.486-0.94164 31.355-1.4269 31.355-1.7156 0-0.22141-0.61687-2.5857-1.3708-5.254-1.0229-3.6202-1.6069-5.0875-2.3011-5.7817-1.5225-1.5225-3.7812-1.2698-14.849 1.6615-5.2388 1.3875-14.446 3.7869-20.461 5.3322-6.0149 1.5452-15.54 4.0071-21.167 5.4707-5.6268 1.4637-15.231 3.9432-21.343 5.5101-6.1119 1.5669-11.61 3.1552-12.219 3.5295-1.9482 1.1985-1.994 2.7486-0.26528 8.9664 0.70078 2.5205 1.3967 5.0589 1.5465 5.641 0.14978 0.58208 0.94209 3.4396 1.7607 6.35 3.3984 12.083 4.2272 15.21 4.2325 15.971 0.0065 0.92176-2.782 2.9026-4.086 2.9026-0.87025 0-0.95638-0.24141-3.65-10.231-0.81098-3.0074-1.7668-6.4206-2.1241-7.5847-0.35727-1.1642-1.6333-5.7425-2.8355-10.174-2.3678-8.7278-2.4406-9.6072-1.0506-12.701 0.79076-1.7599 1.5248-2.6488 3.1685-3.8369 1.6052-1.1603 2.6987-1.4954 15.699-4.8115 6.0149-1.5343 15.064-3.8606 20.108-5.1695s13.343-3.4483 18.442-4.754 9.3631-2.4678 9.4776-2.5824c0.11454-0.11454-0.70285-1.9229-1.8164-4.0186-4.1466-7.8036-4.8105-8.5729-7.3987-8.5729-1.0087 0-9.9383 4.3446-40.339 19.626-23.658 11.892-39.495 20.052-40.19 20.707-2.1355 2.0128-2.1914 1.8666 7.5669 19.816 9.2834 17.076 12.452 23.153 12.445 23.867-0.01213 1.1482-2.2984 4.1792-3.1524 4.1792-0.69135 0-1.1606-0.73441-4.5086-7.0556-0.77074-1.4552-3.51-6.5352-6.0873-11.289-14.049-25.913-13.729-25.204-12.985-28.751 0.48668-2.3213 0.98665-3.2183 2.8248-5.0676 1.306-1.3139 7.3525-4.4559 41.211-21.415 24.864-12.454 40.352-20.018 41.478-20.258 1.8791-0.4 3.9796-0.11958 6.2687 0.83687 2.1363 0.89262 4.1615 3.5392 7.4561 9.7444 1.8219 3.4314 3.3901 5.9832 3.6801 5.9881 0.27792 0.0048 4.5642-1.039 9.525-2.3194 4.9608-1.2805 9.757-2.3307 10.658-2.3338 2.631-0.0091 5.1753 1.0285 7.0194 2.8625 1.8051 1.7952 2.598 3.7056 4.5392 10.937 0.59386 2.2122 1.1303 4.0728 1.1921 4.1346 0.0618 0.06182 3.1202-0.03645 6.7963-0.21837 12.203-0.60386 14.894-0.55583 17.126 0.30565 2.3296 0.89935 4.3747 2.7917 5.3415 4.9426 0.70022 1.5579 1.2894 6.2707 1.314 10.51 0.0121 2.086 0.0531 2.1854 0.98272 2.381 0.53357 0.11229 5.2129 0.92268 10.399 1.8009 5.1856 0.87819 10.148 1.9054 11.029 2.2826 1.7958 0.76976 4.0881 3.0192 5.1634 5.067 0.49354 0.93981 0.71411 2.0316 0.7127 3.5278-1e-3 1.2353-1.6119 10.887-3.7471 22.451-2.0598 11.157-4.5216 24.571-5.4706 29.81-1.7198 9.4932-7.3309 40.189-11.307 61.854-1.1513 6.2737-2.268 12.068-2.4815 12.876-0.6967 2.6378-2.3119 4.7134-4.6902 6.0272-2.0138 1.1124-4.8311 1.7594-6.2217 1.4288zm-0.2874-152.12c-0.1479-5.0526-0.4728-6.1968-2.0336-7.1614l-1.2487-0.77173-22.469 0.92617c-12.358 0.50939-23.977 1.0315-25.82 1.1603-4.1028 0.28667-5.0715 0.05748 13.935 3.2967 8.1492 1.3889 19.659 3.3622 25.576 4.3853s11.077 1.882 11.465 1.9087c0.67116 0.04632 0.70014-0.13619 0.59454-3.7441zm-3.1256 141.94c-0.61595-0.27806-1.3873-0.91364-1.7141-1.4124l-0.59419-0.90685-0.98619 0.70223c-1.19 0.84738-3.4052 0.92195-4.505 0.15166-0.9897-0.69322-1.8404-2.3124-1.8404-3.5029 0-1.4292 1.2937-3.6149 3.2883-5.5558 2.3467-2.2834 5.2728-4.5018 5.9381-4.5018 1.0509 0 4.0255 3.9751 5.1836 6.9272 1.3896 3.542 1.2884 6.2765-0.28491 7.7003-0.90336 0.81753-3.1207 1.0145-4.4854 0.39838zm-32.997-41.694c-0.25019-0.30932-0.78312-0.90463-1.1843-1.3229-3.0993-3.2314-9.6226-13.275-12.867-19.811-3.3428-6.7331-5.417-12.911-6.2396-18.583-1.7583-12.125 2.763-18.615 12.979-18.631 8.2651-0.013 13.914 3.9726 15.494 10.932 0.79267 3.4919 0.80413 3.5008 2.0002 1.5573 3.8624-6.2761 9.5338-8.6321 16.801-6.9793 3.7648 0.85628 5.2072 1.5999 7.7898 4.0158 2.0327 1.9015 2.432 2.4886 3.0472 4.4802 0.88353 2.8605 0.88197 3.5284-0.0163 7.0019-1.2675 4.9013-4.0655 10.036-8.0355 14.746-2.0905 2.4802-9.1913 9.6876-10.822 10.985-0.7319 0.58208-1.5915 1.2965-1.9102 1.5875-0.31871 0.29104-1.2092 1.0006-1.979 1.5769s-1.5582 1.1692-1.7522 1.3176c-0.19402 0.14844-0.82902 0.63297-1.4111 1.0767-1.433 1.0924-6.6798 4.527-8.674 5.678-1.8656 1.0768-2.5812 1.1594-3.2183 0.37176zm-21.835-82.081c-1.196-1.13-2.5889-3.2642-3.7383-5.7278-0.81326-1.7431-0.98753-2.5969-0.98753-4.8381 0-3.2853 0.39518-3.8279 2.9682-4.0751 1.6421-0.15779 3.8942 0.37636 3.9222 0.93029 6e-3 0.12198 0.22776 0.50732 0.49242 0.85631 0.46108 0.608 0.53067 0.60436 1.6645-0.08688 1.5197-0.9265 2.6058-0.90533 4.3583 0.08494 2.9323 1.657 2.4021 5.0251-1.3743 8.7304-2.0669 2.028-5.7269 4.9245-6.2226 4.9245-0.13065 0-0.61791-0.35938-1.0828-0.79862zm-82.308-2.9937 0.23737-1.3229-1.0344 0.97014c-0.78207 0.73346-1.3885 0.97014-2.4856 0.97014-1.9737 0-2.4953-0.25318-3.1773-1.5421-1.2907-2.4393-0.23549-9.3858 1.7495-11.516 2.2004-2.3619 11.652 1.6997 12.455 5.3518 0.29444 1.3406-1.2647 3.7428-2.622 4.0398-1.6025 0.35066-1.643 0.39989-0.65312 0.79386 0.53358 0.21236 0.97014 0.62587 0.97014 0.91892 0 0.60378-3.8223 2.6596-4.9448 2.6596-0.65242 0-0.70591-0.14318-0.49423-1.3229zm53.189-1.329c-0.15688-0.40882-0.01058-0.79283 0.4228-1.1097 0.60091-0.4394 0.55986-0.46401-0.44027-0.26398-1.7796 0.35592-3.623-0.4442-4.1989-1.8225-1.1048-2.6441-0.20056-4.774 2.4523-5.7764 0.81382-0.30751 0.96805-0.53593 0.80377-1.1905-0.31386-1.2505 0.42077-3.3562 1.3932-3.9934 2.5041-1.6407 5.6982 0.03932 6.0526 3.1835 0.16771 1.4879 0.26651 1.6304 1.1302 1.6304 1.419 0 2.8836 1.7139 3.0992 3.6268 0.1528 1.3557 0.0418 1.7142-0.83406 2.6944-0.73631 0.824-1.4181 1.1853-2.5138 1.3323-1.2427 0.16665-1.4319 0.28783-1.0909 0.69873 0.71481 0.8613-0.2057 1.2779-3.2073 1.4517-2.4728 0.14314-2.8592 0.08505-3.0689-0.46138zm-26.136-2.3846c-0.76092-0.63573-2.4825-1.6142-3.8257-2.1744-2.5919-1.081-3.3242-1.5178-3.3242-1.9828 0-0.1583 0.48432-0.81354 1.0763-1.4561 1.279-1.3884 3.0077-4.3126 3.3411-5.6517 0.50726-2.0373 1.3878-2.0116 4.0493 0.11778 0.6791 0.54333 2.346 1.442 3.7042 1.9971 1.8744 0.76609 2.4967 1.1947 2.5824 1.7787 0.06495 0.44248-0.11265 0.85595-0.41797 0.97312-0.58475 0.22439-3.0505 4.147-3.917 6.2313-0.68983 1.6594-1.4365 1.6975-3.2683 0.16704z"/>
<path d="m164.71 234.9c-2.0186-0.36869-3.8032-0.80341-3.9658-0.96603-0.51903-0.51903-1.1428-4.3287-0.76979-4.7017 0.22089-0.22089 2.0396-0.0652 5.1342 0.43965 4.7259 0.77089 4.8124 0.77254 6.261 0.11932 0.86918-0.39194 1.69-1.09 2.0106-1.7099 0.29792-0.57612 3.0696-14.874 6.1592-31.774 10.855-59.375 15.11-82.639 16.17-88.405 0.58814-3.2015 1.0694-6.1143 1.0696-6.4731 3.6e-4 -1.2366-1.1143-2.9982-2.2332-3.5291-0.61629-0.29245-6.2793-1.4097-12.585-2.4827-6.3052-1.0731-23.688-4.0253-38.628-6.5605-14.94-2.5352-29.403-5.0027-32.14-5.4833-2.7371-0.48061-5.4607-0.777-6.0526-0.65862-0.59187 0.11837-1.5968 0.75239-2.2331 1.4089-1.276 1.3165-1.157 0.79647-4.937 21.573-1.2156 6.6818-1.6722 8.5543-2.0856 8.5526-0.96928-4e-3 -3.8806-2.8034-3.8806-3.7314 0-1.3694 4.5513-25.967 5.0207-27.134 0.54367-1.3522 2.9298-3.9544 4.2542-4.6392 0.56168-0.29045 0.96678-0.57789 0.90025-0.63875-0.0665-0.06086-2.8197 0.02459-6.1182 0.18993-3.2985 0.16532-9.0135 0.39133-12.7 0.50225-8.5649 0.25768-9.8061 0.5219-11.012 2.3441-0.90882 1.3733-0.91286 1.4111-0.66409 6.2214 0.13766 2.6618 0.30214 6.3478 0.36551 8.1911s0.23443 5.8496 0.38012 8.903c0.30734 6.441 0.2456 6.6221-2.2537 6.6139-2.7756-9e-3 -2.7725-1e-3 -3.029-7.4029-0.09751-2.8134-0.27506-7.0203-0.39457-9.3486s-0.24166-6.2971-0.27144-8.8194c-0.0528-4.4719-0.02864-4.6295 0.97014-6.3288 1.3339-2.2694 2.4456-3.2865 4.6904-4.291 1.7628-0.7888 2.6406-0.85602 22.578-1.729 23.859-1.0447 24.944-1.0894 34.738-1.4313 4.0106-0.14001 7.491-0.37754 7.7342-0.52786 0.33898-0.2095 0.0919-1.4948-1.0586-5.5063-0.82544-2.8781-1.7654-5.527-2.0889-5.8864-0.80039-0.88932-2.3208-1.6396-3.3226-1.6396-0.7311 0-7.3652 1.6517-23.196 5.7753-10.296 2.6818-42.701 11.027-52.388 13.491-5.6268 1.4314-10.759 2.873-11.404 3.2037-1.3284 0.68043-2.1776 2.0639-2.1776 3.5475 0 0.97823 1.4592 6.4431 7.7008 28.84 0.75702 2.7164 1.2998 5.1415 1.2062 5.3892-0.21588 0.57122-2.9633 2.1955-3.7137 2.1955-0.31105 0-0.64152-0.12292-0.73437-0.27316-0.46547-0.75315-9.7506-34.932-9.7506-35.892 0-2.7755 1.7859-6.2856 3.9356-7.7351 1.6282-1.0979 4.1634-1.8724 16.173-4.9408 5.7238-1.4625 14.931-3.8289 20.461-5.2586 5.5298-1.4298 13.944-3.5979 18.697-4.818s8.7217-2.2865 8.8178-2.3696c0.0961-0.08315-0.61826-1.6771-1.5875-3.5421-4.3082-8.2899-5.4206-9.6063-8.1176-9.6063-1.0195 0-7.3813 3.061-28.873 13.892-15.161 7.6408-32.963 16.601-39.56 19.911-10.048 5.0418-12.123 6.2116-12.788 7.2079-1.5444 2.3142-2.6924-0.17441 15.199 32.95 2.8457 5.2685 5.174 9.923 5.174 10.343 0 1.0511-2.0128 3.89-2.758 3.89-0.43545 0-2.3437-3.2216-6.7391-11.377-18.725-34.743-16.709-30.722-16.724-33.363-0.017145-2.9363 0.85148-4.9715 2.9837-6.9911 2.2215-2.1041 80.391-41.245 83.074-41.596 1.2586-0.16498 2.4228-0.05653 3.8515 0.35883 3.3056 0.96095 5.118 3.0403 9.0049 10.331 1.7844 3.347 3.4006 6.0854 3.5914 6.0854s4.7348-1.1218 10.098-2.4928c10.341-2.6438 11.211-2.7368 14.16-1.5143 1.8922 0.78441 4.4972 3.5522 5.2585 5.5871 0.36515 0.97596 1.2541 3.9169 1.9754 6.5355 0.72131 2.6185 1.4128 4.8673 1.5367 4.9972s3.3208 0.07918 7.1044-0.11278c12.201-0.61903 15.083-0.55968 17.11 0.35239 2.3728 1.0677 4.2745 2.9994 5.0742 5.1542 0.63772 1.7185 1.2986 8.0546 1.1293 10.826-0.0433 0.70787 0.0703 1.379 0.25224 1.4915 0.18198 0.11247 4.9312 0.98948 10.554 1.9489 5.6226 0.95942 10.842 2.0023 11.6 2.3175 1.6683 0.69445 4.2042 3.0863 5.0605 4.7731 1.3488 2.6567 1.3657 2.5284-4.7602 36.023-7.4166 40.552-11.155 61-14.473 79.159-1.4534 7.9551-2.786 14.99-2.9613 15.633-0.63603 2.3337-2.3764 4.4982-4.547 5.6551-2.6844 1.4308-4.8949 1.6064-9.5402 0.75788zm3.4306-151.6c-0.15261-5.1223-0.57643-6.3445-2.5198-7.2667-1.3473-0.63935-0.90917-0.64587-22.641 0.33695-2.5224 0.11408-4.8242 0.20429-5.1153 0.20047-0.29104-0.0038-3.9423 0.15866-8.1139 0.36108-4.1716 0.20241-8.6166 0.39217-9.8778 0.42167-1.2612 0.02949-3.952 0.08969-5.9796 0.13375-2.0276 0.04406-3.5357 0.21147-3.3514 0.37204 0.18432 0.16056 7.2408 1.4545 15.681 2.8755s21.061 3.5769 28.046 4.791c6.985 1.2141 12.994 2.222 13.353 2.2398 0.60938 0.03023 0.64388-0.2667 0.51878-4.4655zm-3.6977 141.75c-0.61327-0.37394-1.2193-1.0084-1.3467-1.4098-0.29056-0.91549-0.71337-0.92163-1.6765-0.0243-0.90588 0.84395-3.2872 0.95425-4.3612 0.202-0.39541-0.27696-1.0004-1.1277-1.3444-1.8905-0.61837-1.3713-0.61552-1.4065 0.25168-3.1124 1.2867-2.5312 7.0574-7.899 8.4918-7.899 0.78711 0 3.1389 3.102 4.4789 5.9075 0.91713 1.9202 1.1448 2.8506 1.1728 4.7929 0.0321 2.2235-0.0419 2.4762-0.95507 3.2632-1.2244 1.0552-3.1463 1.1248-4.7113 0.17052zm-33.233-42.268c-5.0878-6.0621-9.3165-12.489-12.98-19.727-6.9421-13.717-8.7359-25.923-4.7395-32.252 2.0111-3.1846 6.14-5.0294 11.145-4.9795 6.5424 0.0652 11.423 2.6347 13.838 7.2853 0.68098 1.3115 1.8614 5.4061 1.8614 6.4567 0 1.2237 0.54732 0.95047 1.5611-0.7794 1.2453-2.1249 3.4986-4.6832 5.0786-5.766 4.0054-2.745 10.587-2.844 16.087-0.24208 2.6639 1.2602 5.6328 4.4798 6.3462 6.882 0.70746 2.3823 0.70456 3.6663-0.015 6.6251-1.1119 4.5721-4.5622 10.912-8.192 15.052-2.4186 2.7586-9.0115 9.42-10.488 10.597-0.73024 0.58208-1.8162 1.4652-2.4132 1.9625-4.7528 3.959-14.138 10.208-15.33 10.208-0.35693 0-1.1486-0.59531-1.7593-1.3229zm-20.694-80.792c-0.87605-0.62741-2.7331-3.3839-3.776-5.6048-1.2445-2.6504-1.7363-6.4656-1.0086-7.8253 1.0325-1.9292 5.1564-1.5829 6.5941 0.55373 0.69388 1.0312 0.81411 1.0855 1.2475 0.5633 1.354-1.6315 3.966-1.583 5.79 0.10741 2.333 2.1622-0.43675 7.0413-6.4067 11.286-1.7979 1.2783-1.8909 1.3133-2.4404 0.91983zm-82.499-3.6988 0.22661-1.4993-1.259 1.1946c-2.4363 2.3117-5.4838 1.3185-6.1056-1.9898-0.4759-2.5323 1.0603-8.4087 2.5134-9.6147 1.5547-1.2903 8.198 0.9406 10.549 3.5424 1.5613 1.7282 1.6014 2.7568 0.17123 4.3857-0.91871 1.0464-1.3274 1.247-2.54 1.247-1.5225 0-1.4836 0.36576 0.12602 1.1874 1.1957 0.61033 1.0173 1.0186-0.90345 2.0676-2.5918 1.4155-3.0572 1.3282-2.7778-0.52093zm53.257-0.92299c-0.10389-0.1681 0.12487-0.58958 0.50835-0.93662 0.38348-0.34704 0.69724-0.85351 0.69724-1.1255 0-0.40774-0.13756-0.39815-0.78405 0.05468-0.92506 0.64794-2.3632 0.70742-3.5899 0.14848-1.0355-0.47181-2.1036-2.8575-1.772-3.958 0.35193-1.1678 1.8998-2.638 3.0414-2.8888 0.92274-0.20267 1.0063-0.3325 0.8046-1.2506-0.83122-3.7845 3.5495-5.9964 6.0323-3.0457 0.76309 0.90688 0.90013 1.3627 0.76638 2.5493l-0.16287 1.445h1.2281c1.7422 0 3.2554 1.7206 3.2554 3.7016 0 1.1242-0.22983 1.6625-1.0674 2.5001-0.89608 0.89608-1.2783 1.0424-2.3812 0.9119-0.72263-0.08552-1.6314-0.28598-2.0194-0.44546-0.65203-0.26797-0.64534-0.22374 0.08819 0.583 1.4602 1.6059 0.93147 2.0622-2.3893 2.0622-1.1368 0-2.152-0.13753-2.2559-0.30563zm-26.407-2.5421c-0.72319-0.59611-2.5417-1.6173-4.0412-2.2694-1.4995-0.65204-2.7781-1.3408-2.8414-1.5306-0.06327-0.1898 0.19258-0.63702 0.56856-0.99384 1.0807-1.0256 3.5163-4.9892 3.7669-6.1299 0.39258-1.7874 0.94601-1.7138 3.8644 0.51382 0.8172 0.62378 2.4642 1.5 3.66 1.9472 1.6033 0.5996 2.1742 0.98704 2.1742 1.4756 0 0.3644-0.13627 0.66254-0.30283 0.66254-0.3831 0-2.5107 3.1906-3.7233 5.5837-0.50853 1.0035-1.1239 1.8246-1.3674 1.8246s-1.0345-0.48773-1.7577-1.0838z"/>
<path d="m163.79 234.56c-3.0626-0.64299-3.0293-0.60837-3.8398-3.9888-0.33789-1.4092 0.34114-1.5311 4.69-0.84187 4.8955 0.77583 6.2182 0.7496 7.4792-0.14833 1.3131-0.93499 1.8523-2.0532 2.3683-4.9111 3.2811-18.173 5.7841-31.921 6.0694-33.338 0.19545-0.97014 1.005-5.3358 1.799-9.7014 1.2954-7.1227 2.1046-11.552 3.1422-17.198 0.18718-1.0186 0.49319-2.6855 0.68001-3.7042 0.18683-1.0186 0.74868-3.9952 1.2486-6.6146 0.49987-2.6194 1.3958-7.5406 1.991-10.936s1.217-6.888 1.3817-7.7611c0.16479-0.87313 0.46537-2.5003 0.66795-3.616 0.20257-1.1157 0.52707-2.9016 0.72109-3.9688 0.19403-1.0672 0.50248-2.7737 0.68545-3.7924 0.39179-2.1812 1.402-7.6036 1.7911-9.6132 0.97617-5.0427 2.107-12.205 2.1082-13.353 1e-3 -1.0645-0.24789-1.6075-1.1514-2.511-0.96072-0.96072-1.5925-1.2263-3.7924-1.5941-1.4518-0.24276-4.3859-0.74994-6.5202-1.1271-2.1343-0.37712-4.8331-0.83229-5.9972-1.0115-1.1642-0.1792-3.0692-0.49508-4.2333-0.70197-4.9419-0.87822-8.2976-1.4562-11.112-1.914-1.6492-0.26824-6.3324-1.0632-10.407-1.7667-10.633-1.8357-10.209-1.7641-18.697-3.1502-4.2686-0.69699-9.0311-1.5031-10.583-1.7914-9.4102-1.7476-18.305-3.0588-19.38-2.857-0.74129 0.13907-1.6091 0.68766-2.2594 1.4283-1.0462 1.1916-1.2043 1.723-2.2067 7.4186-0.20488 1.1642-0.51078 2.831-0.67978 3.7042-0.169 0.87312-0.63555 3.4131-1.0368 5.6444-0.40124 2.2313-0.95952 5.2476-1.2406 6.7028-0.28109 1.4552-0.6172 3.4828-0.74691 4.5058-0.1297 1.023-0.38064 1.9495-0.55762 2.0589-0.38955 0.24075-1.47-0.44104-3.0698-1.937-1.0697-1.0003-1.1676-1.2488-0.95717-2.43 0.1289-0.72366 0.39168-2.2682 0.58396-3.4324 0.19228-1.1642 0.72347-4.101 1.1804-6.5264 0.45696-2.4253 1.1836-6.3941 1.6147-8.8194 0.43114-2.4253 0.99864-5.2035 1.2611-6.1736 0.62068-2.2942 2.3012-4.5437 4.2458-5.6833 1.466-0.85911 1.8304-1.7828 0.55318-1.4022-0.32322 0.09632-2.7308 0.26418-5.3502 0.37303-7.3666 0.30612-13.627 0.55982-17.11 0.69341-3.8532 0.14779-5.0364 0.41625-6.1309 1.3911-1.7088 1.522-1.8204 2.5358-1.3248 12.036 0.11134 2.1343 0.28817 6.1031 0.39296 8.8194 0.10479 2.7164 0.28197 5.6837 0.39373 6.5941 0.33866 2.7585 0.07711 3.1073-2.3298 3.1073-1.1396 0-2.1514-0.12842-2.2485-0.28538-0.09701-0.15697-0.27536-2.4192-0.39634-5.0271-0.12098-2.6079-0.28503-6.0911-0.36456-7.7403s-0.24769-5.9738-0.37368-9.6101l-0.22908-6.6114 0.99841-1.9733c1.6667-3.2942 4.5913-5.1296 8.4375-5.2951 4.4097-0.18972 12.133-0.51859 15.699-0.66844 7.0833-0.29771 15.19-0.65264 23.989-1.0503 4.4225-0.19988 12.463-0.52459 17.778-0.71799 2.1139-0.07691 3.9724-0.26882 4.13-0.42646 0.34636-0.34635-2.5533-10.778-3.2188-11.58-0.96798-1.1663-2.4978-1.6617-4.5466-1.4721-1.6378 0.15154-9.4458 2.076-20.316 5.0075-1.1642 0.31394-7.0379 1.8267-13.053 3.3616-6.0149 1.5349-15.222 3.907-20.461 5.2714-5.2388 1.3643-14.59 3.782-20.781 5.3726-12.274 3.1535-12.947 3.4465-13.615 5.9298-0.31896 1.1845-0.17727 2.0389 1.0927 6.5888 0.80256 2.8753 1.5817 5.7041 1.7315 6.2862 0.14978 0.58208 0.82988 3.0427 1.5113 5.4681 3.5966 12.801 4.5161 16.341 4.3536 16.765-0.09835 0.25629-0.91487 0.89735-1.8145 1.4246-2.3712 1.3896-1.9388 2.2105-5.3074-10.076-0.87778-3.2015-2.7256-9.869-4.1063-14.817-2.6684-9.5623-2.9173-11.412-1.8701-13.894 1.2285-2.9119 3.0942-4.5618 6.3498-5.615 0.97014-0.31386 6.6851-1.8272 12.7-3.3629 6.0149-1.5357 15.381-3.9419 20.814-5.347 5.4328-1.4051 13.742-3.5509 18.465-4.7684 4.7229-1.2175 8.7327-2.3593 8.9107-2.5373 0.46363-0.46363-5.0876-10.609-6.5724-12.012-1.0405-0.98291-1.4687-1.1465-3.0007-1.1465-1.6583 0-4.6023 1.415-40.839 19.628-23.551 11.837-39.507 20.056-40.199 20.707-2.1664 2.0379-1.6814 3.663 4.3337 14.522 0.42991 0.77611 1.8522 3.3955 3.1606 5.8208s4.662 8.6404 7.4524 13.811c2.7904 5.1709 5.0695 9.6159 5.0647 9.8778-0.01362 0.74038-2.4523 3.8892-2.8973 3.7408-0.21818-0.0727-1.8434-2.8214-3.6117-6.1082-1.7682-3.2868-6.8592-12.723-11.313-20.969l-8.0983-14.993 0.011748-2.8689c0.010477-2.5561 0.12584-3.0523 1.0583-4.5518 0.57562-0.92558 1.6022-2.1197 2.2813-2.6536 0.6791-0.5339 19.094-9.9078 40.922-20.831 37.481-18.756 39.808-19.868 41.86-20.005 1.4693-0.09782 2.776 0.05576 4.0364 0.47437 2.9449 0.97813 4.582 2.9534 8.2549 9.9598 2.7717 5.2873 3.284 6.0582 4.0331 6.0683 0.47195 0.0064 4.8662-1.0203 9.765-2.2815 4.8988-1.2612 9.6264-2.2931 10.506-2.2931 3.3806 0 6.9551 2.1826 8.4529 5.1613 0.30541 0.6074 1.2745 3.6931 2.1535 6.8571 1.4563 5.242 2.0245 6.5428 2.6807 6.1373 0.34718-0.21456 12.206-0.67555 17.619-0.68491 4.6071-8e-3 4.823 0.02528 6.6161 1.0188 1.9642 1.0883 3.3194 2.5903 4.1666 4.6181 0.51676 1.2368 0.69136 2.763 1.0252 8.9619 0.0983 1.8249 0.22751 3.3669 0.28717 3.4266 0.0596 0.05965 1.4505 0.35757 3.0907 0.66203 1.6402 0.30446 3.776 0.70307 4.7461 0.8858s4.2869 0.73856 7.3705 1.2352c6.4647 1.0412 8.482 1.7893 10.382 3.8503 2.9923 3.2462 3.0922 5.0264 0.93251 16.608-2.3035 12.353-2.8039 15.049-3.3389 17.992-0.52628 2.8945-0.97838 5.323-1.5762 8.4667-0.72763 3.8264-2.5352 13.911-3.383 18.874-0.38117 2.2313-1.0804 6.0413-1.5538 8.4667-0.47342 2.4254-1.1894 6.2354-1.591 8.4667s-0.96183 5.3269-1.2449 6.8792c-0.28308 1.5522-0.84376 4.6478-1.246 6.8792-0.98674 5.4744-1.9452 10.675-2.8278 15.346-0.40338 2.1343-0.95514 5.1506-1.2261 6.7028-0.271 1.5522-0.74358 4.1716-1.0502 5.8208-0.30659 1.6492-0.86206 4.7449-1.2344 6.8792-1.3245 7.5928-2.3859 9.605-6.0258 11.424-1.8941 0.94651-2.5494 1.0927-4.7021 1.0494-1.3757-0.0277-3.7713-0.31702-5.3235-0.64291zm4.6032-151.07c-0.21401-4.6538-0.71033-6.2458-2.3102-7.4105-0.99303-0.72291-3.7656-0.83357-11.818-0.47168-2.5224 0.11336-6.253 0.27448-8.2903 0.35804-2.0373 0.08357-5.8473 0.2458-8.4667 0.36052-2.6194 0.11472-6.35 0.27299-8.2903 0.35172-1.9403 0.07873-5.7503 0.2331-8.4667 0.34303-2.7164 0.10994-6.1295 0.27187-7.5847 0.35986-1.4552 0.08798-2.884 0.16862-3.175 0.1792-1.1336 0.04121 0.52652 0.62859 2.8222 0.99855 1.2612 0.20324 5.2299 0.87464 8.8194 1.492 3.5895 0.61734 7.0026 1.1995 7.5847 1.2937 0.58208 0.0942 4.2333 0.71846 8.1139 1.3872 3.8806 0.66877 11.811 2.0067 17.623 2.9731 5.8119 0.96643 10.641 1.8306 10.73 1.9205 0.0898 0.08982 0.78049 0.16331 1.5348 0.16331h1.3715zm-3.2537 141.73c-0.61595-0.27549-1.4013-0.95015-1.7453-1.4992-0.34397-0.54911-0.66675-1.0578-0.71728-1.1305-0.0505-0.0727-0.58701 0.28454-1.1922 0.79375-1.8714 1.5747-4.3854 1.0815-5.4069-1.0607-0.7592-1.592-0.73424-1.9622 0.26541-3.9349 0.91076-1.7973 3.6187-4.5363 6.2965-6.3687 2.0837-1.4259 2.4943-1.2536 4.4703 1.8751 2.036 3.2238 2.8535 5.4862 2.8535 7.8972 0 1.6743-0.14603 2.1793-0.8107 2.8037-1.0662 1.0017-2.6268 1.2444-4.0134 0.62426zm-33.464-42.097c-0.50736-0.53358-2.2308-2.7164-3.8299-4.8507-7.8337-10.456-13.5-22.023-15.575-31.796-0.77802-3.6637-0.79027-9.9382-0.0245-12.572 1.8827-6.4763 8.8603-9.4215 17.266-7.2881 6.3111 1.6018 9.5034 5.3768 10.643 12.586 0.1304 0.82462 0.35265 1.4993 0.4939 1.4993 0.14124 0 0.61096-0.63014 1.0438-1.4003 1.3226-2.3533 3.4682-4.8414 5.2056-6.0368 1.9821-1.3637 5.2546-2.4407 7.4165-2.4407 2.2077 0 6.2966 0.9731 8.5931 2.045 2.5441 1.1875 5.3885 4.1011 6.1309 6.2802 1.6867 4.9501-0.469 11.839-6.2148 19.86-4.0978 5.7209-12.897 13.936-20.906 19.517-3.2002 2.2303-8.6182 5.5665-9.0398 5.5665-0.15414 0-0.69538-0.43656-1.2027-0.97013zm-22.431-82.726c-0.60763-0.82461-1.68-2.6899-2.3831-4.1451-1.0794-2.2341-1.2784-3.0145-1.2787-5.0145-3.5e-4 -2.7891 0.43565-3.4122 2.5903-3.7012 1.8595-0.24941 3.4685 0.41543 4.1378 1.7098 0.28688 0.55475 0.61366 1.0086 0.72619 1.0086s0.69498-0.41263 1.2943-0.91696c0.87933-0.73991 1.3303-0.87792 2.3357-0.71477 4.1276 0.66982 4.4241 4.466 0.66719 8.5418-1.7586 1.9078-5.5868 4.7316-6.4146 4.7316-0.31369 0-1.0675-0.67469-1.6751-1.4993zm-80.94-1.001c-0.12307-0.19913-0.14452-0.71021-0.04767-1.1358 0.09684-0.42553 0.05591-1.0912-0.09098-1.4793-0.25907-0.68442-0.27454-0.68206-0.5165 0.07899-0.53989 1.6981-3.0715 2.7175-4.9544 1.9949-1.8332-0.70346-2.1764-5.6027-0.67611-9.6503 1.1444-3.0874 1.6271-3.3973 4.4327-2.8453 4.0049 0.78791 7.5281 2.8525 8.3808 4.9111 0.35155 0.84873 0.32738 1.2191-0.13831 2.1197-0.85554 1.6544-2.0452 2.2856-3.8184 2.0257l-1.4938-0.21893 1.0583 0.87854c0.58208 0.48319 1.2568 0.87932 1.4993 0.88029 0.24254 0.0011 0.44097 0.20681 0.44097 0.45743 0 0.61707-3.7828 2.4574-4.076 1.9829zm53.454-2.7717c0.2019-0.37725 0.52499-0.78349 0.71797-0.90276 0.19298-0.11927 0.35088-0.5391 0.35088-0.93295 0-0.67688-0.05944-0.66608-1.0854 0.19721-1.2197 1.0263-1.5168 1.0763-3.106 0.52228-3.146-1.0967-2.6686-5.9358 0.65258-6.6151 1.2108-0.24764 1.2124-0.25052 1.1153-2.0794-0.08284-1.5608 0.03454-1.9631 0.79435-2.723 0.96014-0.96014 2.8567-1.2034 4.1182-0.52832 1.078 0.57694 1.839 2.373 1.5832 3.7366-0.21875 1.166-0.19732 1.1919 0.98803 1.1919 1.6308 0 2.6665 0.92411 3.0754 2.7438 0.46839 2.0848-0.24656 3.4338-2.1168 3.9942-1.2231 0.36644-1.5329 0.32807-2.6438-0.32734-1.4712-0.86801-1.6111-0.53406-0.38621 0.92164 0.47966 0.57004 0.7707 1.1378 0.64676 1.2618-0.12394 0.12394-1.3157 0.22535-2.6484 0.22535-2.2906 0-2.403-0.03749-2.056-0.68591zm-27.036-2.0808c-0.95231-0.71555-2.736-1.6954-3.9638-2.1775-1.2278-0.4821-2.3089-1.0713-2.4024-1.3092-0.09352-0.23799 0.41351-1.1111 1.1267-1.9403 0.71322-0.82917 1.798-2.5791 2.4107-3.8888s1.3025-2.3812 1.533-2.3812c0.23049 0 0.86782 0.36753 1.4163 0.81675 1.4285 1.17 3.2126 2.1717 5.1539 2.8937 0.92797 0.34514 1.772 0.76476 1.8757 0.9325 0.10367 0.16774-0.38744 0.97762-1.0914 1.7998-0.70392 0.82213-1.7861 2.5549-2.4049 3.8506-0.61876 1.2957-1.3044 2.4344-1.5236 2.5303-0.21924 0.09597-1.1778-0.41097-2.1301-1.1265z"/>
<path d="m164.88 234.59c-2.3054-0.42352-3.6434-0.84508-3.9311-1.2386-0.46858-0.64081-1.0339-3.6877-0.73889-3.9827 0.0981-0.0981 2.1235 0.16679 4.501 0.58861 5.7065 1.0125 7.7355 0.60265 8.9857-1.815 0.28778-0.55649 1.7939-7.9545 3.3469-16.44s4.174-22.81 5.8244-31.832c1.6504-9.0223 4.4962-24.58 6.3241-34.572s4.3489-23.764 5.6022-30.604 2.2292-12.97 2.1685-13.622c-0.14606-1.5716-1.0337-2.8645-2.4149-3.5174-0.61923-0.29274-12-2.3769-25.291-4.6315-13.291-2.2546-32.986-5.6026-43.767-7.4401-18.283-3.1162-19.695-3.3087-20.99-2.8631-2.7475 0.94499-2.9729 1.609-5.7683 16.994-1.375 7.5671-2.4999 13.877-2.4999 14.023 1.02e-4 0.57814-0.88364 0.20361-2.3449-0.99376-1.1161-0.91458-1.5361-1.5169-1.5375-2.2049-0.0035-1.7041 4.6472-26.32 5.1598-27.311 0.82267-1.5909 2.6256-3.4425 4.0691-4.1789 2.1639-1.1039 1.7048-1.4291-1.7305-1.2257-6.904 0.40878-10.433 0.56761-16.316 0.73434-7.5479 0.21391-8.7139 0.35418-10.137 1.2194-2.0499 1.2466-2.3433 2.3526-2.0581 7.757 0.13849 2.6246 0.30797 6.2802 0.37663 8.1235 0.06866 1.8433 0.23608 5.4151 0.37203 7.9375 0.2633 4.8849 0.25225 6.4402-0.0492 6.9279-0.10334 0.16721-0.96669 0.30401-1.9185 0.30401-1.2875 0-1.815-0.15807-2.0602-0.61736-0.18124-0.33955-0.4275-3.078-0.54725-6.0854-0.11975-3.0074-0.31191-7.3731-0.42702-9.7014-0.1151-2.3283-0.23161-6.2971-0.25891-8.8194-0.04736-4.377-0.0068-4.6585 0.88905-6.1736 2.1253-3.5943 4.3841-4.7638 9.8211-5.0846 2.0373-0.1202 5.6092-0.29322 7.9375-0.38448 2.3283-0.09126 6.3765-0.26594 8.9958-0.38817 2.6194-0.12223 5.0006-0.21728 5.2917-0.21123 0.29104 0.0061 3.7835-0.13682 7.7611-0.31751 3.9776-0.18068 8.9782-0.39978 11.112-0.48688 2.1343-0.0871 6.103-0.26634 8.8194-0.39831 2.7164-0.13197 5.7094-0.20782 6.651-0.16855 2.1406 0.08927 3.7551-0.25027 3.7585-0.79042 1e-3 -0.22712-0.65121-2.7505-1.4503-5.6075-1.5926-5.694-2.195-6.6653-4.5762-7.3787-1.3774-0.41268-4.8372 0.34032-19.729 4.2938-2.2313 0.59238-8.3432 2.1745-13.582 3.5159-5.2388 1.3414-14.764 3.7992-21.167 5.462-6.4029 1.6627-16.315 4.2201-22.026 5.6831-11.616 2.9754-12.43 3.2512-13.24 4.4879-1.3345 2.0366-1.3071 2.2015 2.8213 17 0.70367 2.5224 1.5841 5.6974 1.9566 7.0556 0.37245 1.3582 1.2932 4.6897 2.0461 7.4034 0.75291 2.7137 1.3015 5.1095 1.2192 5.3241-0.18816 0.49034-2.6879 1.9128-3.3615 1.9128-0.54813 0-0.76086-0.63635-3.4201-10.231-0.94113-3.3955-2.7735-9.9836-4.072-14.64-1.2985-4.6567-2.4502-9.2784-2.5593-10.271-0.29242-2.6577 0.64953-5.1626 2.72-7.2331 1.9542-1.9542 1.5704-1.821 15.691-5.4461 10.261-2.6342 22.64-5.8302 28.575-7.3774 1.7462-0.45523 7.0644-1.8175 11.818-3.0272 4.7537-1.2097 8.8018-2.3459 8.9958-2.5247 0.22982-0.21185-0.385-1.7496-1.7639-4.4118-4.0744-7.8663-5.3101-9.2745-8.1383-9.2745-1.0015 0-7.3688 3.0628-28.152 13.541-14.772 7.4477-32.615 16.424-39.651 19.948-11.63 5.8238-12.878 6.5335-13.716 7.8009-1.5913 2.4046-2.7146-0.06057 14.421 31.648l6.3398 11.731-1.1416 1.7791c-0.67882 1.0578-1.3572 1.7366-1.6734 1.6742-0.49597-0.0979-2.7291-4.1228-17.444-31.44l-5.6675-10.521-0.013758-2.355c-0.016792-2.8712 0.84977-4.9751 2.8065-6.8141 2.0714-1.9467 80.42-41.093 82.898-41.419 1.2592-0.16582 2.4201-0.05839 3.8449 0.35581 3.2292 0.93875 4.8102 2.7651 8.6669 10.012 1.7906 3.3646 3.4571 6.1947 3.7033 6.2892 0.24619 0.09447 4.5476-0.90169 9.5587-2.2137 11.931-3.1238 13.943-3.1261 17.313-0.01967 2.0894 1.9259 2.6309 3.101 4.3577 9.4555 0.80984 2.9802 1.6378 5.6279 1.8399 5.8839 0.2543 0.32206 0.8639 0.40392 1.9797 0.26585 1.9926-0.24657 11.159-0.60409 16.605-0.64767 4.3633-0.03491 5.712 0.31176 7.9988 2.056 1.9903 1.5181 2.9317 3.5776 3.3243 7.2722 0.19216 1.8086 0.35796 4.4327 0.36845 5.8313 0.0113 1.5092 0.18924 2.6843 0.43767 2.8905 0.23023 0.19108 5.1644 1.1608 10.965 2.1549 5.8004 0.9941 11.034 2.0524 11.63 2.3519 1.5192 0.76345 3.6733 2.8845 4.415 4.3472 1.2997 2.5633 1.2257 3.4393-1.5852 18.776-1.4678 8.0086-6.6189 36.178-11.447 62.599-4.828 26.421-8.9507 48.679-9.1616 49.462-0.90635 3.3659-4.4465 6.2088-8.1526 6.547-1.1128 0.10155-3.375-0.094-5.408-0.46748zm3.6177-151.12c-0.13894-5.2885-0.58889-6.5587-2.7284-7.7026-1.3264-0.70915-0.33452-0.71772-21.736 0.18769-1.5522 0.06567-6.2354 0.23361-10.407 0.37321-4.1716 0.13959-7.6848 0.31296-7.8072 0.38526-0.12237 0.0723-3.6942 0.22096-7.9375 0.33036-7.7939 0.20094-9.2663 0.34919-8.7207 0.87802 0.16505 0.15998 5.5388 1.1749 11.942 2.2554 10.542 1.779 29.031 4.9302 41.451 7.065 2.6194 0.4502 5.0559 0.8373 5.4145 0.86022 0.60915 0.03893 0.64391-0.26537 0.52917-4.6326zm-3.8475 141.39c-0.49637-0.26998-1.0883-0.89862-1.3154-1.397-0.49818-1.0934-1.1536-1.153-2.03-0.18452-0.52417 0.5792-1.0038 0.70102-2.431 0.61736-1.6941-0.0993-1.8175-0.17619-2.618-1.6306-0.83764-1.522-0.83819-1.5306-0.18941-2.9986 1.1213-2.5372 6.8456-7.9986 8.3836-7.9986 1.5215 0 5.1538 6.7686 5.4267 10.112 0.16231 1.9888 0.0994 2.2531-0.7343 3.0868-1.0429 1.0429-2.9847 1.2126-4.4922 0.3927zm-35.189-44.747c-8.0053-10.223-14.135-21.956-16.63-31.834-1.2645-5.0056-1.4051-10.736-0.35944-14.657 0.78887-2.9577 3.9354-5.9049 7.3735-6.9064 2.6531-0.77285 6.9775-0.70005 10.183 0.17144 5.4056 1.4698 8.4552 4.9825 9.6868 11.158 0.26858 1.3467 0.6644 2.5072 0.8796 2.5789 0.21521 0.0717 0.97455-0.79195 1.6874-1.9193 4.2336-6.695 9.5442-8.7891 17.275-6.8119 3.4406 0.87997 5.2837 1.9459 7.3626 4.2582 3.5464 3.9445 3.5133 8.6053-0.114 16.026-4.7108 9.6375-15.896 20.63-30.062 29.545-1.7728 1.1157-3.4956 2.0285-3.8285 2.0285-0.34839 0-1.8138-1.5435-3.4539-3.638zm-19.96-79.721c-1.9969-2.437-3.7368-6.451-3.7896-8.7429-0.0657-2.8492 0.20934-3.423 1.8528-3.8655 1.9673-0.52975 3.6931 0.08156 4.608 1.6323l0.70208 1.1899 1.1152-0.8444c1.7579-1.3311 3.2056-1.3294 4.7923 0.0057 1.8716 1.5748 1.3072 4.0886-1.6275 7.2492-1.6584 1.786-5.5444 4.8903-6.1217 4.8903-0.15969 0-0.84885-0.68158-1.5315-1.5146zm-81.038-1.2194c-0.0188-0.14552-0.01588-0.82021 0.0065-1.4993 0.05526-1.6765-0.54176-2.6055-0.85988-1.338-0.37201 1.4822-1.7023 2.4807-3.3632 2.5242-1.7245 0.04522-2.639-0.82727-3.0262-2.8871-0.32415-1.7248 0.37089-5.6216 1.3771-7.7209l0.81035-1.6907 2.3303 0.052c4.039 0.09013 9.1092 3.1946 9.1092 5.5776 0 0.46343-0.42243 1.3446-0.93873 1.9582-0.85362 1.0145-1.0943 1.1049-2.6549 0.99721-2.0381-0.14062-2.2177 0.53326-0.38313 1.4372 0.62618 0.30855 1.1421 0.72781 1.1465 0.93168 0.0044 0.20387-0.71061 0.71981-1.5889 1.1465-1.7626 0.85634-1.9153 0.89607-1.965 0.51127zm53.304-2.0889c0-0.13024 0.23624-0.49785 0.52498-0.8169 0.28874-0.31905 0.62767-1.1253 0.75318-1.7917l0.2282-1.2116-1.2109 1.1465c-1.8628 1.7637-3.9693 1.4878-5.083-0.66582-1.0093-1.9517 0.26575-4.3192 2.5577-4.7492l1.1851-0.22232-0.22028-1.6605c-0.19109-1.4405-0.10347-1.7963 0.66134-2.6855 0.71364-0.82966 1.1647-1.0249 2.3676-1.0249 1.2044 0 1.6538 0.1951 2.3716 1.0296 0.75875 0.8821 0.85764 1.2661 0.69016 2.6802l-0.19549 1.6506 1.424-0.03733c1.881-0.04932 3.1181 1.2757 3.1181 3.3396 0 2.9696-3.1921 4.2348-5.3188 2.1081-0.83921-0.83921-1.0312-0.91405-1.0312-0.402 0 0.34605 0.38333 1.1941 0.85184 1.8844 0.46851 0.69039 0.75956 1.3475 0.64676 1.4603-0.28728 0.28728-4.3208 0.25767-4.3208-0.03172zm-26.811-2.5867c-0.6791-0.57234-2.4253-1.5388-3.8806-2.1476-1.4552-0.60886-2.6955-1.1517-2.7563-1.2064-0.06074-0.05467 0.53998-0.94928 1.3349-1.988 0.79495-1.0388 1.8699-2.8014 2.3887-3.9171 0.51884-1.1157 1.1481-2.0285 1.3983-2.0285s1.2103 0.54266 2.1335 1.2059c0.92319 0.66325 2.5507 1.5477 3.6168 1.9655 1.066 0.41778 2.0737 0.89162 2.2392 1.053 0.16553 0.16135-0.36534 1.1953-1.1797 2.2977-0.81437 1.1024-1.8743 2.864-2.3553 3.9147-0.48104 1.0507-1.0614 1.9061-1.2897 1.9009-0.22831-0.0052-0.97074-0.47777-1.6498-1.0501z"/>
<path d="m165.25 234.54c-2.11-0.35234-3.9586-0.77165-4.108-0.9318-0.41104-0.44059-1.0426-3.7856-0.76517-4.0524 0.13353-0.12838 1.989 0.0686 4.1234 0.43784 2.1343 0.3692 4.4362 0.67209 5.1153 0.67308 1.4404 2e-3 3.2441-0.99858 4.069-2.2575 0.34841-0.53175 1.4727-5.7794 2.819-13.158 1.2317-6.7503 4.1474-22.671 6.4793-35.38 2.3319-12.709 5.7617-31.441 7.6219-41.628s4.1013-22.41 4.9803-27.164c1.7904-9.6824 1.8234-11.123 0.29063-12.723-0.5414-0.5651-1.2342-1.1027-1.5396-1.1946-0.30538-0.09193-10.477-1.8504-22.604-3.9077-12.127-2.0573-25.62-4.3531-29.986-5.1018-30.651-5.2566-35.528-6.0301-36.689-5.8189-1.5725 0.286-3.448 2.0759-3.8623 3.6862-0.1765 0.68591-1.382 7.1209-2.6789 14.3-1.2969 7.179-2.4749 13.18-2.6177 13.335-0.14279 0.15504-1.0237-0.40992-1.9577-1.2555l-1.6981-1.5373 2.1924-12.15c1.2058-6.6826 2.4187-12.956 2.6952-13.941 0.71092-2.532 2.5163-4.7466 4.7055-5.7719 0.99573-0.46638 1.8104-1.0023 1.8104-1.1909 0-0.21337-1.2994-0.2612-3.4396-0.12662-1.8918 0.11896-8.1227 0.38779-13.847 0.59741-5.7238 0.20962-10.988 0.53382-11.697 0.72045-0.76314 0.2007-1.7571 0.87105-2.433 1.6409l-1.1428 1.3016 0.23069 6.1905c0.12688 3.4048 0.40839 9.6426 0.62559 13.862 0.31314 6.0829 0.30368 7.7811-0.0457 8.2021-0.48057 0.57905-2.6983 0.71117-3.4928 0.20808-0.38916-0.24641-0.62569-3.1768-1.125-13.938-0.70118-15.112-0.66504-15.584 1.4122-18.451 1.1478-1.5846 4.0606-3.2167 6.2689-3.5128 0.73973-0.09918 15.156-0.76009 32.037-1.4687 30.62-1.2854 30.692-1.2901 30.799-2.0426 0.15359-1.0771-2.699-10.759-3.4002-11.541-0.89426-0.99688-2.3586-1.6396-3.7357-1.6396-0.68341 0-5.8904 1.2011-11.571 2.6692-5.6806 1.4681-12.71 3.2819-15.62 4.0308-2.9104 0.74886-8.4667 2.1879-12.347 3.1979-7.2815 1.8951-16.709 4.3255-31.397 8.0938-17.053 4.375-16.11 4.0794-17.374 5.4496-0.96906 1.0504-1.1465 1.5109-1.1465 2.9747 0 0.95255 0.30127 2.7408 0.66949 3.9739 0.36822 1.2331 1.5692 5.4964 2.6688 9.474 1.0996 3.9776 2.805 10.116 3.7896 13.64 0.98463 3.5244 1.6964 6.6525 1.5817 6.9514-0.27151 0.70755-3.0641 2.1312-3.4336 1.7505-0.15649-0.16124-1.3152-4.0238-2.575-8.5834-1.2598-4.5596-3.36-12.1-4.6673-16.757-2.7739-9.8812-2.9215-11.355-1.4408-14.382 1.7309-3.5379 2.9956-4.1113 16.813-7.6226 7.7195-1.9618 27.362-7.0245 37.924-9.7744 2.5224-0.65677 6.2856-1.6194 8.3627-2.1392 2.0771-0.51979 3.8486-1.1327 3.9366-1.3621 0.26627-0.69388-5.1373-10.457-6.6825-12.074-1.3397-1.4019-1.5676-1.5056-3.3083-1.5056-1.7546 0-3.3129 0.72896-25.372 11.869-12.927 6.5277-30.59 15.417-39.252 19.755-17.365 8.6948-17.942 9.0765-17.94 11.869 0.0011 1.5629-0.2403 1.0925 15.805 30.822 2.9482 5.4624 5.3605 10.161 5.3605 10.442 0 0.593-1.9867 3.4386-2.4007 3.4386-0.15378 0-1.5342-2.3416-3.0675-5.2035s-5.0723-9.4104-7.8643-14.552c-2.792-5.1417-5.7519-10.619-6.5776-12.171-0.82565-1.5522-2.4069-4.5179-3.5138-6.5904-1.7961-3.3628-2.0137-3.9956-2.0228-5.8822-0.012665-2.645 0.93981-4.9072 2.8128-6.6806 1.017-0.96291 11.967-6.6012 41.507-21.373 39.75-19.877 40.146-20.065 42.288-20.079 2.6447-0.01778 5.5834 1.2523 7.0965 3.0672 0.93019 1.1156 3.3449 5.3446 6.4156 11.236 0.92013 1.7653 1.4288 2.3812 1.9665 2.3812 0.39895 0 4.7891-1.0467 9.7558-2.3259 9.9558-2.5642 11.653-2.7453 14.45-1.5418 3.4897 1.5012 4.554 3.3439 6.9206 11.982 0.71768 2.6194 1.4158 4.8797 1.5513 5.0229s3.4948 0.10574 7.4649-0.0833c3.9702-0.18903 9.007-0.36644 11.193-0.39424 3.7877-0.04816 4.0796 0.0012 6.2122 1.0511 3.9334 1.9364 4.9758 4.2405 5.3517 11.829 0.14083 2.8434 0.37761 5.2449 0.52616 5.3367 0.14854 0.09181 4.9282 0.97066 10.621 1.953 5.8846 1.0154 11.037 2.0894 11.941 2.4891 2.0523 0.9075 3.3845 2.1911 4.4584 4.296 1.1216 2.1984 1.1203 4.0971-7e-3 10.127-0.4896 2.6194-3.2104 17.462-6.0461 32.985-2.8358 15.522-6.7236 36.795-8.6396 47.272-1.916 10.478-4.2932 23.495-5.2826 28.928-1.9649 10.789-2.387 12.42-3.7238 14.387-1.0178 1.4979-4.1208 3.2203-6.3336 3.5157-0.77611 0.1036-3.1374-0.0999-5.2474-0.45227zm3.3557-150.97c-0.0703-2.4216-0.27886-4.8028-0.46341-5.2917-0.49716-1.3168-2.0154-2.7644-3.164-3.0167-1.0091-0.22164-55.418 1.8736-56.364 2.1705-0.29523 0.09264-0.36746 0.27917-0.17639 0.45552 0.17797 0.16425 7.5467 1.5196 16.375 3.0118 24.583 4.1552 40.69 6.9074 41.275 7.0525 0.29104 0.07219 1.0054 0.10643 1.5875 0.07608l1.0583-0.05516zm-3.6601 141.28c-0.53113-0.29778-1.2099-1.0136-1.5084-1.5908-0.29846-0.57717-0.63473-1.0494-0.74726-1.0494s-0.67626 0.39687-1.2527 0.88194c-1.7586 1.4797-4.0336 1.0854-5.0473-0.87488-0.71232-1.3775-0.67462-1.9389 0.25526-3.8008 1.2553-2.5136 6.9954-7.3824 8.1713-6.9311 0.71374 0.27389 3.1974 4.2242 4.136 6.5784 1.0178 2.5527 1.0673 5.3071 0.11266 6.2634-0.96347 0.96511-2.8941 1.2104-4.1196 0.52328zm-33.322-42.24c-0.59876-0.63059-2.2665-2.734-3.7061-4.6743-15.745-21.221-20.829-44.025-11.089-49.733 3.5123-2.0583 7.8905-2.4852 12.748-1.2429 5.6939 1.4562 8.4607 4.4233 9.8688 10.583 0.81487 3.5646 0.8306 3.6062 1.3038 3.4484 0.22769-0.0759 1.0353-1.1607 1.7947-2.4106 2.2835-3.7586 4.749-5.7746 8.3501-6.8276 4.8861-1.4288 11.882 0.34238 15.451 3.9121 4.0385 4.0385 4.0672 8.99 0.0979 16.871-3.817 7.5784-11.823 16.313-21.635 23.603-3.148 2.339-11.314 7.6179-11.784 7.6179-0.17212 0-0.80284-0.51594-1.4016-1.1465zm-22.338-82.645c-3.1168-4.5302-4.4429-9.8324-2.8559-11.419 1.5162-1.5162 5.2196-0.64341 5.8624 1.3817 0.29391 0.92605 0.73749 0.87816 2.0433-0.22061 0.86596-0.72866 1.3368-0.87686 2.2931-0.72168 4.1466 0.6729 4.1797 4.2321 0.0775 8.3343-2.2459 2.2459-4.9676 4.2405-5.7864 4.2405-0.29528 0-1.0306-0.71762-1.634-1.5947zm-80.781-2.4334c0-1.7953-0.28823-2.7562-0.74252-2.4755-0.1737 0.10735-0.31581 0.5899-0.31581 1.0723 0 1.3793-1.477 2.609-3.1338 2.609-1.6852 0-2.3587-0.59506-2.8847-2.5484-0.4617-1.7146-0.19773-3.8818 0.80514-6.6099 1.08-2.9381 1.5125-3.3027 3.5898-3.0272 0.95324 0.12645 2.6827 0.61573 3.8432 1.0873 4.1447 1.6842 5.7579 3.6826 4.6704 5.7856-0.78866 1.5251-1.9778 2.0176-3.7375 1.5479-2.2382-0.5974-1.7128 0.62411 0.9523 2.2143 0.58815 0.35092 0.50523 0.46551-0.82967 1.1465-0.81572 0.41615-1.6482 0.75664-1.85 0.75664s-0.36683-0.70139-0.36683-1.5586zm54.046-0.44471c-0.36523-0.14639-0.34895-0.35091 0.08006-1.0056 0.71208-1.0868 1.1355-3.6938 0.59988-3.6938-0.21883 0-0.39787 0.25034-0.39787 0.5563 0 0.79778-1.932 2.6187-2.7785 2.6187-1.1647 0-2.4076-0.72231-2.8271-1.643-1.0701-2.3485 0.22811-4.707 2.5909-4.707 1.3778 0 1.3949-0.03133 0.91977-1.6879-0.77366-2.6976 1.4815-4.8699 3.9744-3.8283 0.74975 0.31327 1.3454 0.90438 1.6484 1.6359 0.47159 1.1385 0.45269 1.2666-0.53936 3.6568-0.24036 0.5791-0.18464 0.61097 0.46258 0.26458 1.6096-0.86145 3.3941-0.41282 4.1467 1.0425 0.79554 1.5384 0.63746 2.7299-0.51508 3.8825-1.5082 1.5082-3.7455 1.2074-4.5758-0.6151-0.21625-0.47461-0.55184-0.76488-0.74575-0.64503-0.5053 0.31229-0.03182 1.975 0.8336 2.9273 0.6294 0.6926 0.66158 0.86079 0.21829 1.1411-0.5522 0.34921-2.3302 0.40673-3.0951 0.10013zm-27.787-2.8527c-0.97231-0.73058-2.754-1.72-3.9593-2.1988-2.2539-0.89523-2.5968-1.3417-1.6404-2.1355 0.78154-0.64862 2.8092-3.796 3.4541-5.3617 0.29973-0.7276 0.68998-1.3229 0.86723-1.3229 0.17725 0 0.90998 0.46705 1.6283 1.0379 1.2704 1.0096 3.256 2.0787 5.2292 2.8157 0.53358 0.19927 0.97014 0.5318 0.97014 0.73896 0 0.20716-0.6175 1.2033-1.3722 2.2136s-1.7893 2.6704-2.299 3.689c-0.50972 1.0186-0.96805 1.8521-1.0185 1.8521-0.05046 0-0.88727-0.59775-1.8596-1.3283z"/>
<path d="m164.73 234.26c-2.0677-0.37502-3.3958-0.79307-3.5762-1.1257-0.44412-0.81854-0.81745-3.5281-0.48576-3.5254 0.16258 1e-3 2.1212 0.31759 4.3525 0.70289 2.2957 0.39643 4.593 0.60392 5.2917 0.47796 1.5632-0.28182 3.0404-1.3108 3.6927-2.5721 0.27888-0.5393 2.5087-11.917 4.9552-25.284 2.4465-13.367 5.7927-31.601 7.436-40.519 1.6433-8.9187 3.216-17.571 3.495-19.226 0.45034-2.6727 3.8531-21.147 6.4026-34.76 1.1334-6.0523 1.1712-8.2307 0.16714-9.6408-1.127-1.5827-2.4384-1.9992-10.626-3.3747-4.1716-0.70082-11.712-1.9793-16.757-2.8412-5.0447-0.86182-19.094-3.2498-31.221-5.3067-12.127-2.0568-24.287-4.1293-27.023-4.6055-4.0709-0.70854-5.1923-0.79302-6.1736-0.46505-1.5595 0.5212-3.0308 1.9054-3.4836 3.2773-0.19827 0.60077-1.4569 7.0947-2.7969 14.431-1.34 7.3363-2.5235 13.426-2.63 13.532-0.10649 0.10649-0.83594-0.31511-1.621-0.93688-1.0767-0.8528-1.4274-1.3804-1.4274-2.148 0-1.7916 4.5776-26.106 5.1081-27.131 0.96334-1.8629 2.3967-3.2275 4.5113-4.2949 1.8159-0.91665 2.3986-1.0447 4.098-0.90076 1.0896 0.0923 9.363 1.4542 18.385 3.0264 32.496 5.6627 43.419 7.4718 43.777 7.2505 0.23264-0.14378 0.3129-1.9018 0.22209-4.865-0.15604-5.0919-0.53201-6.3287-2.3082-7.5935-1.2504-0.89034-4.3367-1.0373-13.116-0.6245-3.3955 0.15965-7.523 0.34168-9.1722 0.40452-11.504 0.43832-14.634 0.56666-17.286 0.70873-1.6492 0.08836-5.4592 0.25789-8.4667 0.37675-3.0074 0.11885-6.2618 0.27227-7.232 0.34094-0.97014 0.06866-4.3833 0.19921-7.5847 0.29011-3.2015 0.0909-7.6465 0.26367-9.8778 0.38395-4.428 0.23868-12.048 0.5519-16.238 0.66746-2.943 0.08117-4.4923 0.74115-5.7738 2.4597-0.83619 1.1213-0.91602 3.3417-0.46525 12.939 0.13214 2.8134 0.32878 7.0857 0.43698 9.4939 0.1082 2.4082 0.26888 4.4954 0.35707 4.6381 0.08819 0.14269 0.06183 0.75199-0.05857 1.354-0.20848 1.0424-0.29986 1.0946-1.9179 1.0946-0.93443 0-1.7777-0.12747-1.874-0.28325-0.15292-0.24744-0.31282-3.3112-0.74007-14.181-0.0572-1.4552-0.20884-5.2259-0.33698-8.3792-0.26049-6.4105-0.02536-7.4748 2.2153-10.027 2.1592-2.4592 4.0772-2.8553 16.105-3.3263 2.5224-0.09877 5.8561-0.23327 7.4083-0.2989 1.5522-0.06563 5.9178-0.21654 9.7014-0.33534 3.7835-0.11881 7.6729-0.29805 8.643-0.3983 0.97014-0.10025 3.8276-0.2548 6.35-0.34343 2.5224-0.08863 6.8086-0.25741 9.525-0.37506s6.1618-0.24038 7.6565-0.27274c1.5641-0.03387 2.8971-0.23829 3.1404-0.48164 0.32856-0.32856 0.0895-1.6194-1.0726-5.7907-0.82247-2.9523-1.7306-5.7269-2.0182-6.1657-0.75489-1.1521-2.9743-2.1426-4.5765-2.0424-1.2272 0.07672-6.3484 1.319-16.006 3.8825-1.8433 0.48928-7.3201 1.9094-12.171 3.1558-4.8507 1.2464-13.423 3.4584-19.05 4.9156-11.892 3.0796-25.901 6.6894-33.678 8.6783-5.6872 1.4543-6.6935 1.8888-7.608 3.2845-1.0732 1.6379-0.98599 2.997 0.54554 8.4991 0.81013 2.9104 1.6879 6.0854 1.9506 7.0556 0.26268 0.97014 1.6688 6.046 3.1247 11.28 2.9141 10.476 2.8991 10.154 0.51891 11.14-1.5445 0.63975-1.1216 1.6463-4.5282-10.778-0.95755-3.4925-2.7143-9.8425-3.9039-14.111-1.1896-4.2686-2.2495-8.5728-2.3553-9.565-0.26741-2.5078 0.65858-5.132 2.4392-6.9126 2.025-2.025 1.1853-1.7411 17.918-6.0588 3.3955-0.87616 9.0311-2.3273 12.524-3.2247s8.4931-2.1856 11.112-2.8627 8.1756-2.1031 12.347-3.1689c10.215-2.6099 11.305-2.9414 11.52-3.5012 0.20769-0.54122-4.1896-9.0655-5.8809-11.4-1.1729-1.6191-2.817-2.5184-4.6041-2.5184-0.74928 0-8.7733 3.8701-24.97 12.044-13.126 6.6239-30.931 15.578-39.565 19.898-8.6342 4.3198-16.045 8.2268-16.469 8.6822-1.0839 1.1652-1.5752 2.6595-1.3206 4.0166 0.11982 0.63869 3.0764 6.4532 6.5701 12.921 3.4937 6.4679 6.9864 12.95 7.7614 14.406s2.6799 4.9851 4.2331 7.8442l2.8239 5.1984-1.0058 1.592c-0.55317 0.87558-1.17 1.5922-1.3707 1.5926s-3.0406-4.9603-6.3108-11.024c-3.2703-6.0634-8.3404-15.464-11.267-20.89l-5.321-9.8653 0.011606-2.4819c0.013264-2.8358 0.7489-4.6016 2.6719-6.4136 0.74068-0.69789 15.989-8.5221 41.108-21.092 31.194-15.611 40.308-20.028 41.657-20.188 2.4134-0.28583 5.3947 0.6412 7.1437 2.2213 1.2303 1.1115 3.6994 5.2812 7.7527 13.093 0.42789 0.82462 0.9604 1.4979 1.1834 1.4961 0.41039-0.0032 3.1672-0.68608 12.753-3.1586 2.9104-0.75075 6.0304-1.4734 6.9333-1.606 3.4569-0.50741 7.514 1.6234 9.1328 4.7967 0.36805 0.72143 1.3875 3.8973 2.2654 7.0575s1.7956 5.8778 2.0393 6.0391c0.24368 0.16131 1.1574 0.20811 2.0305 0.104 1.4536-0.17333 5.2474-0.33985 15.665-0.68753 5.7564-0.19213 8.7502 0.99712 10.644 4.228 0.80683 1.3767 1.0141 2.3274 1.3982 6.4134 0.24805 2.6384 0.36907 5.0106 0.26894 5.2715-0.10013 0.26094-0.0879 0.84967 0.0272 1.3083 0.27139 1.0813 0.92029 1.246 12.658 3.2122 5.1916 0.86972 9.9542 1.8407 10.583 2.1577 1.6234 0.81795 3.3763 2.5562 4.2371 4.2016 1.1607 2.2187 0.93205 4.8053-1.6528 18.697-1.2997 6.985-3.6938 20.002-5.3202 28.928-1.6265 8.9253-3.8326 20.99-4.9026 26.811-1.07 5.8208-3.7833 20.664-6.0295 32.985-2.2463 12.321-4.246 22.905-4.4438 23.52-1.0516 3.2707-4.3921 5.7383-8.0624 5.9555-1.0793 0.0639-3.4425-0.15231-5.2515-0.48042zm0.0511-9.659c-0.42275-0.20439-0.95795-0.82864-1.1893-1.3872-0.49181-1.1873-1.3728-1.3074-2.2754-0.31007-0.47045 0.51983-1.0866 0.70556-2.3406 0.70556-1.6399 0-1.7292-0.0533-2.4466-1.4594-0.73137-1.4336-0.73316-1.485-0.10183-2.9104 1.1146-2.5164 6.4945-7.6246 8.0302-7.6246 0.69385 0 3.4177 4.1002 4.4301 6.6686 0.95085 2.4123 0.95683 5.0881 0.0135 6.0314-0.77854 0.77854-2.8098 0.91964-4.12 0.2862zm-35.124-44.687c-4.346-5.5638-7.8428-11.086-10.976-17.335-7.6542-15.264-8.8039-28.31-2.9395-33.356 1.8837-1.6207 3.3056-2.211 6.3739-2.6462 2.888-0.4096 7.9196 0.29635 10.3 1.4451 3.5639 1.7199 6.0744 5.2461 6.8962 9.6863 0.46997 2.5391 0.88618 3.7042 1.3233 3.7042 0.1781 0 1.0435-1.1509 1.9232-2.5576 3.2284-5.1629 6.8152-7.3959 11.888-7.4011 6.6141-7e-3 12.658 3.4226 14.246 8.0834 3.1938 9.3732-8.879 26.282-28.013 39.235-4.824 3.2655-7.112 4.6212-7.7992 4.6212-0.27791 0-1.7281-1.5655-3.2227-3.4789zm-20.065-79.865c-2.0602-2.796-3.5105-6.302-3.5754-8.6435-0.0664-2.3945 0.31922-3.1021 1.8767-3.4442 1.6922-0.37166 3.4968 0.42928 4.0727 1.8076 0.51592 1.2348 1.3021 1.5511 1.7957 0.72246 0.15516-0.2605 0.71596-0.75323 1.2462-1.0949 0.79882-0.5148 1.1578-0.5538 2.0938-0.22751 1.7039 0.59397 2.4102 1.3999 2.4102 2.7502 0 1.5271-0.7398 2.9466-2.5876 4.9649-1.4871 1.6244-5.3426 4.6643-5.9157 4.6643-0.17147 0-0.80891-0.67469-1.4166-1.4993zm-80.749-2.2859c-0.0028-0.73154-0.10255-1.695-0.222-2.1409-0.3055-1.1405-1.3263-0.85167-1.4227 0.40259-0.21271 2.7674-4.0218 3.6258-5.2813 1.1902-0.78026-1.5089-0.46379-5.4118 0.66449-8.1949l0.85621-2.112 2.3142 0.052c3.9682 0.08917 8.7404 2.9388 8.7404 5.2192 0 0.44402-0.32902 1.2256-0.73116 1.7368-0.8644 1.0989-2.8541 1.2735-4.152 0.36437-0.44378-0.31083-0.90176-0.47025-1.0177-0.35427-0.43047 0.43047 0.6432 2.0216 1.8411 2.7283 0.68071 0.40163 1.2377 0.7907 1.2377 0.86461 0 0.07391-0.635 0.45832-1.4111 0.85427l-1.4111 0.7199-0.0048-1.3301zm53.627-1.1329c0-0.18258 0.14654-0.42252 0.32564-0.53321 0.1791-0.11069 0.42984-0.67568 0.5572-1.2555 0.28085-1.2787 0.78932-1.3662 1.0853-0.18681 0.11975 0.47711 0.44027 1.0522 0.71228 1.2779 0.86712 0.71964 0.5381 1.0296-1.0929 1.0296-0.87312 0-1.5875-0.14938-1.5875-0.33196zm-3.7312-1.5956c-1.0768-0.45277-1.9133-1.7884-1.9133-3.055 0-0.39385 0.46404-1.1801 1.0312-1.7473 1.0787-1.0787 2.361-1.3174 3.5781-0.66601 0.82665 0.44241 0.88449 0.0901 0.1233-0.751-0.30748-0.33977-0.64427-1.253-0.74841-2.0294-0.15942-1.1886-0.04572-1.5553 0.71942-2.3204 1.5784-1.5784 3.7918-1.0649 4.6916 1.0886 0.48762 1.167 0.46574 1.3208-0.39751 2.7938-0.98988 1.6891-0.8652 1.8475 0.8004 1.0165 2.1161-1.0557 3.9603 0.21906 3.9603 2.7374 0 1.6296-0.99106 2.7437-2.4406 2.7437-1.5186 0-2.1111-0.3212-2.7028-1.4654-0.29213-0.56491-0.69009-0.92888-0.88435-0.80882-0.19426 0.12006-0.57743 0.03221-0.85147-0.19522-0.61231-0.50818-1.2347-0.17302-1.2347 0.66488 0 0.65439-1.2025 1.9178-2.1351 2.2433-0.3012 0.10512-1.0194-0.0072-1.5961-0.24969zm-23.609-0.76473c-0.91972-0.78478-4.0118-2.3874-5.9113-3.0639-0.5398-0.19222-0.43656-0.46066 0.8011-2.0829 0.78141-1.0243 1.819-2.6957 2.3057-3.7144 0.48671-1.0186 1.0387-1.8521 1.2266-1.8521 0.1879 0 1.097 0.54266 2.0202 1.2059 0.92319 0.66325 2.5507 1.5497 3.6168 1.9698 1.066 0.42015 1.9923 0.81785 2.0583 0.88378 0.066 0.06592-0.51181 0.96544-1.284 1.9989-0.77222 1.0335-1.8211 2.7125-2.3308 3.7312-0.50972 1.0186-1.0432 1.8464-1.1854 1.8394-0.14225-7e-3 -0.73489-0.41906-1.317-0.91574z"/>
<path d="m164.16 233.89-2.8006-0.5848-0.42599-1.6699c-0.50714-1.988-0.59058-1.9647 4.087-1.1407 5.3462 0.94173 7.5297 0.52324 9.0032-1.7256 0.51579-0.7872 2.5226-11.219 8.6607-45.018 2.6875-14.799 3.1096-17.098 5.0515-27.517 1.0668-5.7238 2.2571-12.233 2.645-14.464 0.63522-3.6536 2.2872-12.776 3.7694-20.814 0.3041-1.6492 0.77724-4.1299 1.0514-5.5126 1.1622-5.8611 2.2742-12.738 2.273-14.058-2e-3 -1.7277-1.0142-3.4904-2.4238-4.2193-0.88013-0.45514-7.6434-1.7678-15.567-3.0212-1.8152-0.28715-8.7888-1.4728-26.106-4.4384-7.5536-1.2936-23.631-4.005-38.579-6.5062-5.8029-0.97099-9.1979-1.3869-10.037-1.2295-0.7768 0.14572-1.766 0.7387-2.5548 1.5315-1.0828 1.0883-1.3557 1.6857-1.7188 3.7631-0.44305 2.5343-0.5064 2.8759-1.9297 10.407-0.45838 2.4253-1.2807 6.91-1.8274 9.966s-1.0953 5.5562-1.2192 5.5562c-0.12391 0-0.82061-0.51594-1.5482-1.1465l-1.3229-1.1465 0.57229-3.175c3.8711-21.476 4.3687-23.844 5.3125-25.283 1.8107-2.7605 5.0282-4.3269 8.2851-4.0336 1.0672 0.09609 6.2265 0.90565 11.465 1.799s10.081 1.7147 10.76 1.8252 4.4097 0.74686 8.2903 1.4141c3.8806 0.66729 11.659 1.9877 17.286 2.9342 5.6268 0.94651 10.945 1.8569 11.818 2.0231 2.9496 0.56153 2.8846 0.67633 2.657-4.6908-0.38481-9.0776-0.89886-9.394-14.299-8.799-2.0373 0.09046-5.5298 0.23982-7.7611 0.33192-2.2313 0.0921-6.2007 0.25943-8.8208 0.37184-6.7412 0.28922-11.421 0.48027-17.108 0.69846-2.7164 0.10421-6.2883 0.2732-7.9375 0.37553-1.6492 0.10233-5.2211 0.25782-7.9375 0.34552-2.7164 0.0877-6.6851 0.2429-8.8194 0.34487-4.2245 0.20184-10.47 0.45983-16.617 0.6864-6.0751 0.22392-7.578 0.86835-8.7038 3.7321-0.51979 1.3222-0.51789 2.0884 0.03281 13.224 0.1919 3.8806 0.33867 7.2937 0.32618 7.5847-0.01249 0.29104 0.09179 2.077 0.23175 3.9688l0.25448 3.4396h-3.5703l-0.07517-1.8521c-0.04134-1.0186-0.1039-2.6458-0.13901-3.616-0.0351-0.97014-0.16004-3.5895-0.27761-5.8208-0.61814-11.731-0.64234-17.085-0.08311-18.39 1.3633-3.1805 4.5014-5.2806 8.1596-5.4606 1.9861-0.09769 7.6253-0.34078 15.346-0.6615 10.642-0.44206 18.537-0.78877 23.813-1.0456 4.153-0.2022 11.984-0.51708 18.146-0.72961 3.0774-0.10615 4.5317-0.29578 4.8711-0.63513 0.40988-0.40988 0.25909-1.2873-0.98695-5.7425-1.7473-6.2476-2.0488-6.8931-3.6948-7.9104-1.8262-1.1287-4.0215-0.84147-14.454 1.8911-8.3722 2.1928-27.605 7.1713-60.136 15.566-8.0451 2.0762-15.031 3.9833-15.523 4.238-1.4113 0.72983-2.1975 1.8052-2.4903 3.4065-0.31317 1.7126-0.19972 2.1629 7.138 28.331l1.7754 6.3316-0.94414 0.81211c-0.82657 0.71097-2.3159 1.1228-2.3159 0.6404 0-0.0944-1.0476-3.9441-2.3279-8.5549-5.7619-20.749-6.5186-23.51-6.859-25.029-0.68859-3.0726 1.1477-7.059 4.0295-8.7479 1.021-0.59837 6.1395-2.0864 15.253-4.4344 7.5441-1.9436 17.447-4.5001 22.007-5.6811 4.5597-1.181 12.252-3.1677 17.095-4.4148 8.3302-2.1454 9.7165-2.6192 9.7165-3.3208 0-0.69427-6.1353-11.527-7.0626-12.47-0.84652-0.86088-1.3704-1.0601-3.1201-1.1867l-2.1027-0.1521-39.454 19.825c-29.394 14.77-39.746 20.131-40.6 21.025-0.98072 1.0269-1.1465 1.4557-1.1465 2.9652 0 1.5611 0.39149 2.4877 3.3931 8.0309 1.8662 3.4464 5.1423 9.5206 7.2802 13.498s5.3735 9.9488 7.1902 13.269 3.3031 6.22 3.3031 6.4431c0 0.61553-1.5358 2.856-1.9611 2.861-0.20548 2e-3 -1.5756-2.2578-3.0447-5.0227-1.4691-2.7649-4.0524-7.5671-5.7407-10.672-12.911-23.741-13.723-25.334-13.881-27.248-0.37089-4.4724 1.5697-7.206 7.0946-9.994 1.9792-0.99874 19.95-10.002 39.935-20.007 32.974-16.508 36.525-18.206 38.374-18.35 5.2119-0.40481 7.3783 1.4657 12.073 10.424 1.7462 3.3323 3.3618 6.1344 3.5901 6.2269 0.22832 0.09251 4.7051-0.93361 9.9484-2.2803 5.2433-1.3467 10.236-2.4485 11.094-2.4485 3.3722 0 6.6807 2.127 7.9988 5.1425 0.34581 0.79108 1.2974 3.8867 2.1147 6.8792 0.81728 2.9925 1.6048 5.568 1.75 5.7234 0.33098 0.35423 0.62716 0.36028 6.0136 0.1228 14.596-0.64353 16.197-0.64853 17.981-0.05616 2.0362 0.6763 4.3386 2.7665 5.1436 4.6695 0.61137 1.4452 0.73199 2.4422 1.0304 8.517 0.10837 2.2059 0.27014 4.129 0.35949 4.2736 0.0893 0.14458 1.7142 0.53581 3.6108 0.86941 1.8966 0.3336 4.1628 0.74977 5.0359 0.92482 0.87313 0.17506 4.0727 0.71658 7.1101 1.2034 3.0374 0.48681 6.2124 1.1863 7.0556 1.5544 1.8459 0.80594 3.9433 2.9089 4.6908 4.703 0.99636 2.3917 0.9872 2.4546-5.2363 35.906-1.0649 5.7238-2.2556 12.233-2.6462 14.464-1.3899 7.9416-1.8424 10.454-2.5415 14.111-0.56163 2.9381-5.923 32.21-8.626 47.096-0.28186 1.5522-0.76003 4.1716-1.0626 5.8208-0.30259 1.6492-0.85252 4.7246-1.2221 6.8342-1.2875 7.3498-2.2716 9.2386-5.7044 10.949-2.1902 1.0914-4.8874 1.1649-9.2583 0.25224zm1.1561-9.2631c-0.53181-0.19479-1.1891-0.87109-1.5159-1.5596-0.69033-1.4548-1.3127-1.522-2.7664-0.29877-2.5257 2.1253-5.7158-0.37131-4.4485-3.4814 0.89289-2.1913 6.4008-7.3133 7.8642-7.3133 0.66444 0 2.3671 2.4345 3.7561 5.3707 0.77015 1.628 1.046 2.7276 1.0423 4.1543-6e-3 2.1448-0.16428 2.5275-1.294 3.1222-0.8998 0.47361-1.3583 0.47465-2.6378 6e-3zm-35.047-44.315c-8.4799-10.613-15.089-23.532-17.307-33.831-0.89406-4.1512-0.79354-10.275 0.21341-13 2.1236-5.7477 8.382-8.1098 16.236-6.1277 5.6568 1.4275 8.2346 4.2416 9.6648 10.55 1.0656 4.7005 1.3654 4.7766 3.8215 0.9693 2.2394-3.4713 4.2209-5.2793 6.9258-6.3194 2.7466-1.0561 5.1402-1.2019 8.2764-0.50419 5.0552 1.1247 9.1263 4.0158 10.331 7.3365 1.1804 3.2549 0.0299 9.023-2.8141 14.109-4.2064 7.5217-13.013 16.569-23.158 23.792-3.214 2.2881-9.2159 6.1132-9.5922 6.1132-0.0717 0-1.2403-1.3891-2.5968-3.0868zm-20.678-80.61c-1.5615-2.1158-3.1406-5.6977-3.3611-7.6239-0.35431-3.0959 0.80023-4.2982 3.6194-3.7693 1.0509 0.19715 1.368 0.47531 1.8498 1.6227 0.63309 1.5078 1.5594 1.8254 2.1431 0.73481 0.19344-0.36145 0.84541-0.86167 1.4488-1.1116 0.93369-0.38675 1.2784-0.36796 2.3146 0.12612 2.431 1.1593 2.1447 3.687-0.78731 6.9495-1.3808 1.5365-5.2372 4.571-5.809 4.571-0.17147 0-0.80969-0.67468-1.4183-1.4993zm-80.412-1.0493c-0.17739-0.76609-0.19416-2.3897-0.02466-2.388 0.12296 0.0014 0.68101 0.3039 1.2401 0.6725l1.0165 0.67017-1.1047 0.57128c-0.60761 0.3142-1.1149 0.52752-1.1273 0.47403zm-6.5246-0.77437c-0.59316-0.43373-0.68479-0.94116-0.68479-3.7924 0-2.6969 0.14931-3.6217 0.82634-5.1185 0.45448-1.0048 1.0773-1.9231 1.3839-2.0408 1.5471-0.59366 7.5433 1.6651 9.1838 3.4595 1.2591 1.3772 1.2903 2.242 0.12295 3.4093-1.233 1.233-2.4108 1.3452-3.6758 0.35022-0.49333-0.38806-0.99099-0.70556-1.1059-0.70556-0.55807 0-1.62 1.5137-1.62 2.3091 0 1.9978-2.7818 3.3346-4.4305 2.1291zm60.63-2.3215c0.21971-0.58208 0.48374-1.0573 0.58672-1.0561 0.10298 0.0011 0.45767 0.47748 0.78819 1.0583l0.60095 1.0561h-1.1877c-1.1732 0-1.1828-0.01288-0.78819-1.0583zm-4.611-0.71845c-0.82096-0.32982-1.4942-1.6132-1.4942-2.8483 0-1.6807 3.0116-3.1583 4.1391-2.0308 0.21979 0.21979 0.66225 0.29884 0.98325 0.17566 0.50975-0.19561 0.46809-0.36127-0.32906-1.3086-1.2031-1.4298-1.2661-3.5652-0.12864-4.3619 1.7161-1.202 3.9645-0.29069 4.3614 1.7679 0.16404 0.85069 0.0028 1.3271-0.75376 2.2261-0.72508 0.86171-0.86245 1.2438-0.55696 1.5493 0.30549 0.30549 0.65736 0.25674 1.4266-0.19768 1.8702-1.1047 3.6427-0.44487 4.0318 1.501 0.30361 1.518-0.23707 2.6511-1.5183 3.1818-1.3821 0.57248-2.6968 0.06507-3.1895-1.231-0.55662-1.464-3.1742-2.1673-3.1742-0.85282 0 0.82334-1.8105 2.8071-2.5305 2.7727-0.25746-0.01231-0.82761-0.16679-1.267-0.34331zm-23.543-0.87794c-0.58208-0.476-2.1856-1.373-3.5634-1.9933l-2.5051-1.1279 1.2291-1.6099c0.67601-0.88546 1.6379-2.4434 2.1376-3.462 0.49969-1.0186 1.0448-1.8521 1.2113-1.8521 0.16655 0 0.81913 0.39381 1.4502 0.87512 0.63104 0.48132 2.1963 1.3508 3.4784 1.9321l2.3311 1.057-1.6102 2.3894c-0.88558 1.3142-1.8286 2.9054-2.0956 3.536-0.57692 1.3627-0.69229 1.377-2.0634 0.2557z"/>
</g>
<path d="m56.095 283.42c-1.4415-0.80013-1.8724-1.7261-2.2074-4.7437-0.13533-1.2192-0.4118-2.9839-0.61437-3.9217-0.20256-0.9378-0.47619-2.6258-0.60806-3.7512-0.23132-1.9742-1.7249-6.1052-3.6544-10.108-0.50994-1.0578-0.92965-2.2088-0.9327-2.5576-0.0024-0.34886-0.43828-1.4016-0.96719-2.3394-0.52892-0.93781-0.96416-1.9294-0.9672-2.2035-0.0024-0.27408-0.57302-1.7319-1.2666-3.2397-0.69361-1.5077-1.4515-3.4319-1.6842-4.2759-0.23273-0.84402-0.65756-1.8617-0.94405-2.2616-0.28651-0.39984-0.70487-1.3973-0.9297-2.2166-0.22483-0.81932-0.78821-2.2569-1.2519-3.1947-0.46374-0.93781-0.95572-2.2422-1.0933-2.8987-0.252-1.2025-0.63438-2.6744-1.3067-5.03-0.3161-1.1075-0.95313-6.7866-0.87023-7.7582 0.01602-0.18756 0.14138-8.3209 0.27861-18.074 0.13723-9.7532 0.41564-19.191 0.61868-20.973 0.34494-3.027 0.5183-5.7247 1.293-20.12 0.16655-3.0948 0.46273-6.9312 0.65819-8.5255 0.49222-4.0148 0.95078-9.5605 1.2407-15.005 0.14461-2.7152 0.45156-5.177 0.74827-6.0012 0.68063-1.8907 2.438-4.1237 3.457-4.3927 0.45843-0.12102 1.193-0.51741 1.6324-0.8809 0.64849-0.5365 1.3193-0.66091 3.5638-0.66091 2.3563 0 2.9671-0.12463 4.1334-0.8435 0.7527-0.46394 1.4908-1.1161 1.6402-1.4493 0.14942-0.3332 0.36218-2.9077 0.47279-5.7211 0.11066-2.8134 0.35682-5.6999 0.54713-6.4145 0.44098-1.6557 2.2009-3.454 4.557-4.6564 2.8911-1.4754 3.9338-1.7174 7.3997-1.7174 3.2358 0 3.2372-3.5e-4 4.2732-1.1246 0.75573-0.82006 1.0375-1.4433 1.0406-2.3019 0.0024-0.72513 0.49107-2.1004 1.2716-3.5805 1.1142-2.1127 1.4878-2.5204 3.0911-3.3736 1.0031-0.53377 2.4371-1.129 3.1867-1.3227 1.8122-0.46828 9.1316-0.45058 10.766 0.02608 0.71333 0.208 1.8806 0.53317 2.5939 0.72257 0.71334 0.18941 1.5158 0.67967 1.7833 1.0895 0.2675 0.40981 0.89188 1.2021 1.3875 1.7606 1.3204 1.488 1.8549 2.7674 1.8549 4.44 0 1.2317 0.18219 1.6704 1.0692 2.5746 1.0631 1.0837 1.0885 1.09 4.4353 1.09 3.7212 0 4.6978 0.23663 7.7894 1.8874 1.9478 1.04 2.2182 1.3278 3.5667 3.7964l1.4591 2.6711 0.24627 5.7973c0.46213 10.879 0.86535 18.411 1.2048 22.507 0.18653 2.2507 0.48973 5.9337 0.67378 8.1845 0.18404 2.2507 0.46991 7.7752 0.63524 12.277 0.4069 11.079 0.40282 10.747 0.1495 12.191-0.29812 1.6987 0.0168 2.8674 1.0418 3.8664 0.69072 0.67327 1.1869 0.82349 2.7199 0.82349 1.6763 0 1.9954-0.11935 3.0108-1.1266 0.62468-0.61962 1.2293-1.5787 1.3436-2.1314 0.30134-1.4572 1.188-3.5624 1.5004-3.5624 0.14763 0 0.58419-0.65221 0.97014-1.4493 0.38597-0.79712 0.97341-1.6505 1.3054-1.8963 0.33202-0.24583 0.83139-0.91013 1.1097-1.4762 0.27833-0.56606 0.98218-1.2385 1.5641-1.4942 0.58195-0.25572 1.2455-0.70244 1.4745-0.99269 0.51194-0.64877 4.9923-3.0753 7.0781-3.8334 4.6256-1.6813 11.034-2.3946 14.219-1.5827 3.6054 0.91919 6.9368 5.2716 6.9252 9.0476-7e-3 2.2867-0.5712 3.3438-5.2043 9.7506-1.5144 2.0941-3.5565 5.9466-4.2636 8.0434-0.30965 0.91823-0.77005 1.9157-1.0231 2.2166-0.25305 0.30094-0.68097 1.2377-0.95094 2.0817s-0.82093 2.3786-1.2244 3.4102c-0.40343 1.0316-0.85436 2.8347-1.0021 4.007-0.60374 4.7914-0.86875 6.4598-1.2324 7.7582-0.65235 2.3292-1.0234 4.3345-1.2936 6.9909-0.26996 2.6539-0.61333 4.221-1.3076 5.9678-0.797 2.0054-0.92806 2.3998-1.1331 3.4102-0.11422 0.56268-0.18955 1.9622-0.16743 3.11 0.0274 1.4232-0.11054 2.2455-0.43389 2.5856-0.26077 0.27425-0.71407 1.242-1.0074 2.1505-0.85563 2.6506-1.8566 4.9422-2.1587 4.9422-0.15382 0-0.70757 0.89158-1.2306 1.9813-0.52303 1.0897-1.2059 2.2023-1.5174 2.4724-0.52196 0.45252-1.9468 2.5571-3.5395 5.2279-0.35666 0.59813-0.97677 1.4267-1.378 1.8413s-0.72955 0.92499-0.72955 1.1342c0 0.5369-3.5815 6.0171-6.6938 10.242-2.2591 3.067-4.6119 7.7822-5.0368 10.094-0.14651 0.79715-0.42614 2.1783-0.62138 3.0692-0.19526 0.89092-0.45886 3.0777-0.5858 4.8595-0.12693 1.7818-0.33837 3.483-0.46987 3.7805-0.25656 0.58037-2.199 1.6758-2.9714 1.6758-0.63496 0-0.80393-0.95596-0.84383-4.7743-0.05-4.7873 0.80972-10.419 1.759-11.522 0.27922-0.3245 0.57862-1.0016 0.66534-1.5045 0.1782-1.0336 1.3296-3.1193 2.9746-5.3884 0.61189-0.84401 1.4259-2.1484 1.8089-2.8986 0.38301-0.75024 0.88633-1.481 1.1185-1.6238 0.23218-0.14286 0.79875-1.0636 1.259-2.0461 1.0523-2.2462 1.9218-3.6093 3.6655-5.7468 0.75791-0.92906 1.378-1.8282 1.378-1.9981 0-0.16988 0.54715-0.9884 1.2159-1.8189 1.1759-1.4604 1.587-2.1032 3.3273-5.2027 0.44793-0.79777 1.0484-1.7332 1.3345-2.0786 0.28603-0.34549 0.61257-1.0383 0.72563-1.5397 0.11312-0.50133 0.54972-1.3454 0.97034-1.8756 0.42061-0.53024 0.92744-1.5012 1.1263-2.1576 0.19884-0.65647 0.671-2.1143 1.0492-3.2397 0.37822-1.1254 0.76648-2.4298 0.86277-2.8987 0.0963-0.4689 0.31321-1.0367 0.48205-1.2618s0.26944-0.91565 0.22356-1.5346c-0.0458-0.61895 0.029-1.4834 0.16627-1.921 0.13733-0.43757 0.28384-1.8954 0.32561-3.2397 0.0418-1.3443 0.26015-3.0579 0.48533-3.8082 0.5443-1.8136 0.98474-4.5299 1.26-7.7709 0.12405-1.4606 0.38619-2.765 0.58253-2.8987 0.19633-0.13367 0.44153-0.62669 0.54487-1.0956 0.10335-0.4689 0.35714-1.4664 0.56402-2.2166 0.2069-0.75025 0.48329-2.1314 0.61421-3.0692 0.26184-1.8755 1.0579-4.0492 1.6156-4.4118 0.19653-0.12773 0.35733-0.48056 0.35733-0.78402 0-0.30348 0.56023-1.7906 1.245-3.3048 0.68475-1.5142 1.4388-3.2902 1.6757-3.9466 0.58937-1.6332 5.0913-8.7585 5.9191-9.3683 0.85879-0.63265 1.5249-2.6489 1.5311-4.6346 5e-3 -1.5954-0.45356-2.204-2.7376-3.6328-1.0563-0.66079-5.4815-0.5328-7.7529 0.22422-1.0934 0.36443-2.8635 0.92345-3.9335 1.2423-1.07 0.31884-2.6614 0.95622-3.5365 1.4164-1.9198 1.0096-6.3465 5.5729-7.2871 7.5119-0.37277 0.7685-0.83303 1.4982-1.0228 1.6216-0.38355 0.24931-2.6929 5.2433-3.5742 7.7292-0.31166 0.87909-0.93005 2.3369-1.3742 3.2397-0.44416 0.90275-1.048 2.4988-1.3419 3.5467-0.29391 1.048-0.71946 2.1989-0.94567 2.5577-0.22622 0.35874-0.60102 1.3428-0.8329 2.1868-0.23188 0.84401-0.98909 2.7682-1.6827 4.276-0.69359 1.5077-1.2611 2.9737-1.2611 3.2578 0 0.28402-0.41715 1.1221-0.92701 1.8624-0.50985 0.74031-1.0233 1.768-1.141 2.2838-0.24509 1.0739-1.1647 1.2593-1.8642 0.37574-0.51359-0.64869-0.81584-4.7731-1.2583-17.171-0.30062-8.4235-0.66591-14.42-1.2983-21.314-0.38372-4.1826-0.82416-11.841-1.2846-22.337-0.16867-3.845-0.45677-8.7557-0.6402-10.913-0.18342-2.157-0.48548-5.6865-0.67122-7.8435-0.18575-2.1569-0.44274-6.3003-0.57112-9.2075s-0.37933-5.5353-0.55766-5.8402c-0.17833-0.30494-0.78304-0.95714-1.3438-1.4493-1.011-0.88736-1.0651-0.89488-6.438-0.89488-5.3734 0-5.4269 8e-3 -6.4285 0.8938-0.55549 0.4916-1.1945 1.4507-1.42 2.1314-0.31947 0.96433-0.41106 8.5539-0.41486 34.374-0.0024 18.225-0.09351 33.379-0.2017 33.676-0.29467 0.80765-0.94773 0.65101-1.3723-0.32916-0.27872-0.64338-0.3763-11.237-0.3763-40.855v-39.987l-1.0538-1.049c-1.6894-1.6818-2.176-1.8129-6.7281-1.8129-4.5521 0-5.0386 0.1311-6.728 1.8129l-1.0538 1.049v41.207c0 37.924-0.04252 41.224-0.53326 41.422-1.425 0.57513-1.4122 0.89816-1.4122-35.556v-34.507l-1.4326-1.2346-1.4326-1.2347h-5.2486c-5.1893 0-5.2602 0.01-6.2682 0.89474-0.56074 0.49212-1.1968 1.221-1.4134 1.6199-0.30142 0.55498-0.39652 8.656-0.4053 34.53-0.0098 27.621-0.08995 33.873-0.44072 34.179-1.149 1.0029-1.192 0.13598-1.192-24.019 0-25.916 0.03027-25.498-1.9305-26.565-0.70155-0.38156-1.9982-0.51969-4.8786-0.51969-5.5847 0-6.5865 0.69334-6.9344 4.799-0.10208 1.2055-0.33939 3.6497-0.52722 5.4315-0.52566 4.9866-0.95927 11.131-1.2875 18.245-0.30464 6.6031-0.66747 11.022-1.33 16.198-0.23897 1.8672-0.41691 11.889-0.50006 28.163l-0.12907 25.264 0.97679 2.2657c0.53724 1.2462 0.9768 2.5084 0.9768 2.8049 0 0.29652 0.58364 1.8073 1.297 3.3573 0.71333 1.55 1.297 3.0596 1.297 3.3547s0.52801 1.7417 1.1734 3.2148 1.6667 3.8068 2.2697 5.1861c0.603 1.3793 1.0964 2.7027 1.0964 2.941s0.37292 1.1349 0.82871 1.9926 1.0827 2.2965 1.3932 3.1974c0.31046 0.90087 0.90862 2.3285 1.3293 3.1725 0.42064 0.84402 0.87497 1.995 1.0096 2.5577 0.13467 0.56267 0.57144 1.9438 0.97062 3.0692 1.112 3.1351 1.3552 4.7212 1.5012 9.7934 0.12591 4.3736-0.10233 6.0945-0.80234 6.049-0.12748-8e-3 -0.78507-0.32219-1.4613-0.69756zm72.077-25.907c0-0.17649-0.14592-0.32089-0.32425-0.32089s-0.32423 0.23924-0.32423 0.53165c0 0.29242 0.1459 0.43681 0.32423 0.3209 0.17833-0.11588 0.32425-0.35517 0.32425-0.53166zm6.9712-10.836c0-0.61679-0.63463-0.50418-0.76051 0.13494-0.07 0.3556 0.0515 0.51147 0.32424 0.41588 0.23995-0.0841 0.43627-0.33198 0.43627-0.55082z" stroke-width=".33252"/>
</g>
</svg>
