<?xml version="1.0" encoding="UTF-8"?>
<svg data-name="Layer 1" viewBox="0 0 1344.7 497.44" xmlns="http://www.w3.org/2000/svg">
<path d="m203.78 148.86c-10.815-12.762-20.133-25.814-22.025-28.492a0.426 0.426 0 0 0-0.70032 6e-5c-1.8917 2.6784-11.208 15.73-22.022 28.492-92.691 118.08 14.63 197.76 14.63 197.76l0.87 0.60461c0.8136 12.326 2.8351 30.041 2.8351 30.041h8.0768s2.0129-17.638 2.83-29.961l0.87549-0.68445s107.32-79.67 14.63-197.76zm-22.373 196.02h-1e-3s-4.8113-4.104-6.1097-6.1601l-0.01178-0.22125 5.8195-128.56a0.30284 0.30284 0 0 1 0.605 0l5.8193 128.56-0.01129 0.22077c-1.2977 2.056-6.11 6.1608-6.11 6.1608z" fill="#00684a"/>
<path d="m381.83 318.56-44.561-108.56-0.127-0.31055h-34.749v7.2696l5.5791 0.00879a6.3353 6.3353 0 0 1 6.3237 6.3984l-1.0273 109.35a6.3054 6.3054 0 0 1-6.2007 6.2705l-5.7085 0.06836v7.2266h33.816v-7.2226l-3.48-0.07129a6.3694 6.3694 0 0 1-6.2056-6.334v-103.01l48.611 116.56a4.4848 4.4848 0 0 0 8.2783-1e-3l47.501-113.99 0.70752 100.42a6.3495 6.3495 0 0 1-6.2568 6.3809l-3.5718 0.04394v7.2266h39.576v-7.2285l-5.419-0.042a6.3625 6.3625 0 0 1-6.2554-6.3135l-0.34228-109.33a6.3586 6.3586 0 0 1 6.2363-6.3555l5.7817-0.05567v-7.2656h-33.795z" fill="#00684a"/>
<path d="m693.4 337.32a5.8852 5.8852 0 0 1-1.6938-4.3916v-53.582c0-10.167-3.0171-18.206-8.9683-23.896-5.9463-5.6826-14.111-8.5644-24.267-8.5644-14.34 0-25.604 5.7959-33.481 17.228a0.65138 0.65138 0 0 1-1.168-0.2041l-3.7041-14.312h-6.1904l-15.935 9.1211-1e-3 5.0186h4.1123a6.699 6.699 0 0 1 4.6055 1.5186 5.8517 5.8517 0 0 1 1.6743 4.5674v63.105a5.8086 5.8086 0 0 1-6.0864 6.0859h-3.9862v7.2705h36.641v-7.2705h-3.9863a5.8079 5.8079 0 0 1-6.0864-6.0859v-41.767a38.68 38.68 0 0 1 3.4438-15.777 31.247 31.247 0 0 1 10.201-12.681 26.57 26.57 0 0 1 16.073-4.9404c7.0298 0 12.272 2.2139 15.582 6.581 3.3384 4.4141 5.0312 10.113 5.0312 16.938v51.646a5.8064 5.8064 0 0 1-6.085 6.0859h-3.9873v7.2705h36.642v-7.2705h-3.9868a5.8822 5.8822 0 0 1-4.3921-1.6944z" fill="#00684a"/>
<path d="m1029.1 217.88a71.483 71.483 0 0 0-33.938-8.1934h-48.044v7.2705h4.6548a7.8375 7.8375 0 0 1 7.2485 7.248v107.55a6.952 6.952 0 0 1-2.2749 4.9736 6.8676 6.8676 0 0 1-4.9736 2.2754h-4.6548v7.2705h48.044a71.483 71.483 0 0 0 33.938-8.1934 61.785 61.785 0 0 0 24.506-23.626c6.0225-10.229 9.0762-22.502 9.0762-36.477 0-13.971-3.0537-26.242-9.0762-36.475a61.81 61.81 0 0 0-24.506-23.626zm14.374 60.101c0 12.769-2.294 23.639-6.8193 32.311-4.5156 8.6514-10.544 15.165-17.915 19.361a48.619 48.619 0 0 1-24.353 6.3272h-9.6855a6.8612 6.8612 0 0 1-4.9736-2.2754 6.9448 6.9448 0 0 1-2.2744-4.9736v-101.5a6.8669 6.8669 0 0 1 2.2744-4.9736 6.9636 6.9636 0 0 1 4.9736-2.2744h9.6856a48.619 48.619 0 0 1 24.353 6.3272c7.3682 4.1934 13.396 10.707 17.915 19.36 4.5254 8.6758 6.8193 19.546 6.8193 32.31z" fill="#00684a"/>
<path d="m1175.9 285.21c-4.3613-5.0615-12.867-9.374-22.935-11.67 13.845-6.873 20.862-16.647 20.862-29.068a31.331 31.331 0 0 0-5.4141-18.104 35.9 35.9 0 0 0-15.219-12.278 55.037 55.037 0 0 0-22.674-4.4023h-53.891v7.2705h4.2676a7.8354 7.8354 0 0 1 7.248 7.248v107.55a6.9552 6.9552 0 0 1-2.2744 4.9736 6.8676 6.8676 0 0 1-4.9736 2.2754h-4.6553v7.2705h58.505a66.18 66.18 0 0 0 24.688-4.4912 40.798 40.798 0 0 0 17.841-13.237c4.3721-5.8086 6.5889-12.916 6.5889-21.124a33.037 33.037 0 0 0-7.9659-22.215zm-67.046 48.495a6.9476 6.9476 0 0 1-2.2754-4.9736v-48.312h27.781c9.7598 0 17.334 2.5273 22.51 7.5117 5.168 4.9805 7.7881 11.54 7.7881 19.494a29.601 29.601 0 0 1-3.4297 13.812 26.801 26.801 0 0 1-10.273 10.649c-4.5449 2.7158-10.129 4.0938-16.595 4.0938h-20.532a6.8612 6.8612 0 0 1-4.9736-2.2754zm-2.2754-63.583v-42.89a6.8676 6.8676 0 0 1 2.2754-4.9736 6.9636 6.9636 0 0 1 4.9736-2.2744h13.206c9.4922 0 16.539 2.3584 20.943 7.0108 4.4082 4.6611 6.6436 10.737 6.6436 18.059 0 7.582-2.0742 13.726-6.166 18.26-4.0801 4.5176-10.31 6.8086-18.516 6.8086z" fill="#00684a"/>
<path d="m553.89 253.24a54.789 54.789 0 0 0-51.231 1e-3 47.342 47.342 0 0 0-18.303 18.007 56.146 56.146 0 0 0 0 53.382 47.31 47.31 0 0 0 18.303 18.009 54.789 54.789 0 0 0 51.231-1e-3 47.306 47.306 0 0 0 18.302-18.008 56.142 56.142 0 0 0 0-53.382 47.353 47.353 0 0 0-18.302-18.008zm7.395 44.699c0 12.348-3.0244 22.276-8.9897 29.511-5.9434 7.206-14.025 10.86-24.021 10.86-9.9985 0-18.08-3.6543-24.021-10.86-5.9648-7.2305-8.9893-17.159-8.9893-29.511s3.0244-22.28 8.9893-29.512c5.9399-7.206 14.021-10.859 24.021-10.859 9.9961 0 18.078 3.6533 24.021 10.859 5.9654 7.2354 8.9898 17.164 8.9898 29.512z" fill="#00684a"/>
<path d="m906.82 253.24a54.789 54.789 0 0 0-51.231 1e-3 47.342 47.342 0 0 0-18.303 18.007 56.146 56.146 0 0 0 0 53.382 47.31 47.31 0 0 0 18.303 18.009 54.789 54.789 0 0 0 51.231-1e-3 47.306 47.306 0 0 0 18.302-18.008 56.146 56.146 0 0 0 0-53.382 47.353 47.353 0 0 0-18.302-18.008zm7.395 44.699c0 12.348-3.0244 22.276-8.9897 29.511-5.9434 7.206-14.025 10.86-24.021 10.86-9.9985 0-18.08-3.6543-24.021-10.86-5.9653-7.2305-8.9897-17.159-8.9897-29.511 0-12.351 3.0244-22.28 8.9897-29.512 5.9399-7.206 14.021-10.859 24.021-10.859 9.9961 0 18.078 3.6533 24.021 10.859 5.9654 7.2354 8.9898 17.164 8.9898 29.512z" fill="#00684a"/>
<path d="m764.37 246.88a47.243 47.243 0 0 0-21.872 5.0879 39.554 39.554 0 0 0-15.494 13.865 35.071 35.071 0 0 0-5.6162 19.195 33.879 33.879 0 0 0 4.294 16.957 37.509 37.509 0 0 0 11.403 12.356l-14.252 19.374a7.8887 7.8887 0 0 0 6.3545 12.564h4.0938a30.828 30.828 0 0 0-9.4038 9.6602 25.785 25.785 0 0 0-3.8984 13.446c0 8.585 3.7964 15.664 11.283 21.042 7.4341 5.3398 17.828 8.0469 30.892 8.0469a74.996 74.996 0 0 0 25.742-4.3594 45.946 45.946 0 0 0 19.332-12.825 29.893 29.893 0 0 0 7.3701-20.159c0-8.1826-3.0015-14.038-10.037-19.579-6.0195-4.7344-15.393-7.2373-27.104-7.2373h-40.008a0.25509 0.25509 0 0 1-0.2124-0.39648l10.383-14.042a37.017 37.017 0 0 0 7.6934 2.5859 41.169 41.169 0 0 0 8.0508 0.71484 49.195 49.195 0 0 0 22.574-5.0869 40.119 40.119 0 0 0 15.693-13.863 34.643 34.643 0 0 0 5.7192-19.198c0-7.419-3.5586-20.928-13.384-27.816 0.02588-0.06934 0.07568-0.06543 0.0918-0.06055l21.548 2.4102v-9.8633h-34.442a50.991 50.991 0 0 0-16.793-2.8184zm12.044 62.571h-5e-4a25.308 25.308 0 0 1-12.044 3.0615 24.84 24.84 0 0 1-17.576-7.1113c-4.9717-4.707-7.4927-11.562-7.4927-20.373s2.521-15.666 7.4927-20.374a24.847 24.847 0 0 1 17.576-7.1104 25.35 25.35 0 0 1 12.044 3.0605 24.271 24.271 0 0 1 9.3706 9.1768c2.4248 4.0654 3.6543 9.1953 3.6543 15.247 0 6.0547-1.2295 11.185-3.6543 15.246a24.211 24.211 0 0 1-9.3701 9.1768zm-27.164 36.828h27.112c7.5312 0 12.321 1.46 15.532 4.7334a17.222 17.222 0 0 1 4.7896 12.534 21.661 21.661 0 0 1-8.6665 17.827c-5.7891 4.5381-13.61 6.8389-23.246 6.8389-8.4438 0-15.358-1.8652-20.549-5.5449-5.1362-3.6406-7.7407-9.0576-7.7407-16.101a21.273 21.273 0 0 1 3.6382-12.103 23.377 23.377 0 0 1 9.1304-8.1855z" fill="#00684a"/>
<path d="m1204.2 345.07a12.343 12.343 0 0 1-4.6728-4.6377 13.172 13.172 0 0 1 0-12.894 12.347 12.347 0 0 1 4.6728-4.6377 14.064 14.064 0 0 1 13.421 0 12.34 12.34 0 0 1 4.6728 4.6377 13.166 13.166 0 0 1 0 12.894 12.336 12.336 0 0 1-4.6728 4.6377 14.068 14.068 0 0 1-13.421 0zm12.279-1.4756a10.197 10.197 0 0 0 3.8828-3.9351 12.158 12.158 0 0 0 0-11.348 10.2 10.2 0 0 0-3.8828-3.9351 11.607 11.607 0 0 0-11.137 0 10.193 10.193 0 0 0-3.8828 3.9351 12.158 12.158 0 0 0 0 11.348 10.19 10.19 0 0 0 3.8828 3.9351 11.607 11.607 0 0 0 11.137 0zm-10.979-3.4961v-0.87842l0.17578-0.14014h0.59766a0.78274 0.78274 0 0 0 0.7373-0.73779v-9.2754a0.78276 0.78276 0 0 0-0.7373-0.7378h-0.59766l-0.17578-0.14062v-0.87842l0.17578-0.14062h5.2002a5.6937 5.6937 0 0 1 3.5137 0.98388 3.3165 3.3165 0 0 1 1.2998 2.8106 3.396 3.396 0 0 1-1.002 2.4419 4.2143 4.2143 0 0 1-2.5469 1.2471l1.1943 0.35156 2.3193 3.6538a0.79967 0.79967 0 0 0 0.667 0.42187h0.59765l0.14063 0.14014v0.87842l-0.14063 0.14062h-3.0566l-0.21093-0.14062-3.2324-5.3755h-0.77246v3.6191a0.78478 0.78478 0 0 0 0.73731 0.73779h0.59765l0.17578 0.14014v0.87842l-0.17578 0.14062h-5.3057zm5.0244-6.5347a2.5669 2.5669 0 0 0 1.8975-0.66748 2.6195 2.6195 0 0 0 0.667-1.9326 2.7965 2.7965 0 0 0-0.63184-1.9146 2.1347 2.1347 0 0 0-1.6865-0.72022h-0.38672a0.7848 0.7848 0 0 0-0.73731 0.7378v4.4971z" fill="#00684a"/>
</svg>
