<?xml version="1.0" encoding="UTF-8"?>
<svg width="173.13mm" height="173.27mm" version="1.1" viewBox="0 0 173.12526 173.26988" xmlns="http://www.w3.org/2000/svg">
<g transform="translate(280.48 -61.013)">
<path d="m-201.27 233.95c-36.626-3.2233-67.492-29.451-76.561-65.055-2.0672-8.1151-3.0398-18.513-2.5014-26.743 2.0571-31.446 20.72-59.143 48.916-72.592 10.46-4.9894 20.311-7.5377 32.282-8.3509 15.121-1.0271 29.877 1.9825 43.748 8.9228 8.6323 4.3189 14.842 8.7655 22.063 15.799 7.157 6.9709 12.537 14.414 17.068 23.61 6.4462 13.086 9.2887 26.178 8.8595 40.805-0.26898 9.1674-1.5349 16.417-4.3307 24.801-12.646 37.925-49.768 62.302-89.543 58.802zm20.314-6.6814c8.37-1.4225 15.151-3.6047 22.73-7.3152 26.193-12.823 43.438-38.908 44.782-67.739 0.67568-14.498-1.7615-26.919-7.7117-39.302-5.9389-12.359-14.069-22.244-24.918-30.298-22.534-16.727-52.212-20.498-78.455-9.9685-22.537 9.0426-39.711 27.922-46.863 51.518-8.7029 28.712-0.38001 60.386 21.39 81.401 11.411 11.015 25.43 18.285 41.105 21.314 5.6921 1.1002 8.8492 1.3286 16.595 1.2006 5.3066-0.0877 8.3835-0.30765 11.345-0.811zm-18.288-11.748c-0.5588-0.0771-2.3876-0.31025-4.064-0.51815-14.025-1.7393-28.198-8.8131-38.781-19.355-20.842-20.762-25.999-52.788-12.69-78.808 7.9257-15.495 21.149-27.251 37.501-33.341 12.208-4.5461 27.366-5.3173 39.878-2.0289 12.367 3.2504 22.533 9.0756 31.517 18.059 13.541 13.541 20.416 30.844 19.856 49.974-0.0982 3.3528-0.4262 7.4676-0.72888 9.144-3.5592 19.713-14.756 36.333-31.545 46.826-7.2764 4.5477-16.36 7.9357-25.195 9.3976-3.075 0.5088-13.614 0.94286-15.748 0.64857zm2.2013-14.684v-9.1196l-1.9473-0.22263c-2.5355-0.28985-6.8464-1.286-9.5892-2.2157-3.3162-1.1241-9.0988-4.2252-11.703-6.2762-1.2813-1.009-2.5355-1.9327-2.7872-2.0524-0.29842-0.14206-2.6907 2.0154-6.8788 6.2035l-6.4213 6.4213 2.5041 2.0713c6.8514 5.6673 15.075 9.9282 23.615 12.236 3.8673 1.045 8.8511 1.8884 11.938 2.0201l1.27 0.0542zm14.772 8.0713c7.6658-1.4592 15.916-4.8063 22.481-9.1207 3.2997-2.1685 7.1828-5.2233 7.4075-5.8274 0.12785-0.34371-12.098-12.79-12.564-12.79-0.13898 0-1.4998 0.9135-3.024 2.03-5.7103 4.1828-12.696 7.0219-19.844 8.0643l-3.81 0.55567v18.217l2.9633-0.23808c1.6298-0.13094 4.5055-0.53161 6.3903-0.89038zm38.27-23.942c6.7011-8.7963 11.391-20.88 12.203-31.441l0.21794-2.8353h-18.309l-0.24309 2.286c-0.74975 7.0506-4.2748 15.651-8.7533 21.357-0.7765 0.98926-1.5632 2.0175-1.7481 2.285-0.26162 0.37835 1.0922 1.9185 6.096 6.9351l6.4323 6.4487 1.1117-1.2831c0.61145-0.70568 1.9582-2.3942 2.9928-3.7524zm-83.522-8.2621c0-0.13168-0.75265-1.2338-1.6726-2.4492-4.6657-6.1643-7.9688-14.284-8.6952-21.374l-0.22446-2.1909h-18.397l0.28285 2.9633c1.1352 11.892 6.0481 23.781 13.798 33.389l2.1413 2.6545 6.3832-6.3765c3.5107-3.5071 6.3832-6.4843 6.3832-6.6159zm37.663 9.1693c19.48-2.106 34.473-18.807 34.473-38.401 0-12.34-6.1808-24.276-16.256-31.393-6.8363-4.8292-13.925-7.0719-22.352-7.0719-10.474 0-19.261 3.5403-26.825 10.809-10.318 9.9138-14.239 24.726-10.219 38.597 4.1797 14.423 16.721 25.258 31.626 27.321 4.1613 0.57614 5.3471 0.59334 9.554 0.13852zm-5.6594-17.964c-1.3479-0.73724-1.524-1.3204-1.524-5.0463v-3.6146l-1.6087-0.61179c-2.0982-0.79798-5.4873-4.1686-6.3717-6.337l-0.6556-1.6074-3.3188-1e-3c-3.446-1e-3 -5.0264-0.4484-5.4455-1.5404-0.44731-1.1657-0.19465-2.4215 0.64606-3.2113 0.75654-0.71073 1.2747-0.82626 4.4417-0.99037l3.5853-0.1857 0.65539-1.7604c0.91909-2.4687 3.2476-4.9323 5.8926-6.2344l2.1793-1.0728v-3.6198c0-3.3458 0.0593-3.6755 0.78383-4.3562 1.1432-1.074 3.0241-0.99941 3.9329 0.15597 0.60757 0.7724 0.70192 1.3642 0.70192 4.4027 0 2.5807 0.11211 3.5112 0.42333 3.5136 0.93612 7e-3 4.0291 1.722 5.4217 3.0056 1.2758 1.1759 2.7932 3.628 3.4055 5.5031 0.14839 0.45439 0.82775 0.57726 3.8003 0.68729 3.4614 0.12813 3.655 0.17509 4.4284 1.0742 0.8734 1.0154 1.0353 2.4421 0.37467 3.3025-0.80438 1.0477-1.9052 1.3253-5.255 1.3253h-3.3629l-0.58423 1.5298c-0.81694 2.1391-3.5643 5.0306-5.7724 6.0752-1.0018 0.47392-2.0595 0.86167-2.3504 0.86167-0.44605 0-0.53066 0.57074-0.53974 3.6407-0.0112 3.7832-0.19308 4.373-1.5756 5.1094-0.90678 0.48295-1.4294 0.48361-2.3083 3e-3zm3.556-14.353c1.4817-0.41216 3.1069-1.8972 3.8061-3.478 1.8568-4.1977-1.1969-8.8709-5.7967-8.8709-3.4529 0-6.0723 2.3514-6.3982 5.7435-0.30364 3.16 2.0715 6.3171 5.1213 6.8073 1.4366 0.23091 1.7903 0.20906 3.2675-0.20185zm-46.059-9.9408c0-1.855 0.91117-6.4396 1.9208-9.6644 1.449-4.6284 4.4581-10.242 7.5131-14.017l1.1829-1.4616-6.4057-6.4124c-3.5232-3.5268-6.4834-6.4037-6.5784-6.3931-0.55193 0.0615-5.6583 6.9759-7.583 10.268-4.2948 7.3459-7.5287 17.149-8.1694 24.765-0.10971 1.3039-0.26484 2.7898-0.34473 3.302l-0.14527 0.93133h18.61zm106.42-0.12208c-0.85643-11.36-4.6199-22.229-10.815-31.235-1.8677-2.7148-5.197-6.8923-5.523-6.93-0.095-0.011-3.0552 2.8656-6.5784 6.3924l-6.4057 6.4124 1.1852 1.4616c3.2774 4.0418 5.9975 9.0152 7.682 14.046 1.0533 3.1456 2.0852 8.1841 2.0872 10.191l1e-3 1.1007h18.475zm-89.807-30.669c5.5983-4.5298 14.334-8.2842 21.047-9.0461 0.98668-0.11197 2.1369-0.27347 2.556-0.3589l0.762-0.15532v-18.309l-2.1167 0.21516c-13.83 1.4058-25.81 6.4716-35.835 15.153l-1.4774 1.2794 6.4186 6.4253c3.5302 3.5339 6.4668 6.4253 6.5256 6.4253 0.0589 0 1.0128-0.73287 2.1198-1.6286zm63.13-5.1323c3.5286-3.5322 6.3464-6.4724 6.262-6.5338-0.0845-0.0614-1.068-0.87454-2.1856-1.807-9.7159-8.1063-21.819-13.016-34.967-14.185l-2.4553-0.21827v18.288l1.6087 0.20123c8.678 1.0855 16.177 3.9587 22.115 8.473 1.5736 1.1963 2.9389 2.1818 3.0339 2.1899 0.095 8e-3 3.0597-2.8752 6.5882-6.4075z" fill="#f9fc38" stroke-width=".33867"/>
</g>
</svg>
